<svg width="514" height="185" viewBox="0 0 514 185" fill="none" xmlns="http://www.w3.org/2000/svg">
<g clip-path="url(#clip0_24_251)">
<path d="M19.6821 182.168C34.2921 181.948 43.9621 157.828 43.9621 157.828C47.8321 138.468 52.4221 141.708 52.4221 141.708C21.0921 154.678 11.1921 173.968 11.1921 173.968C11.1921 173.968 13.5421 159.468 43.8521 142.138C43.8621 142.148 0.122092 129.578 0.692092 163.578C0.692092 163.578 0.0120916 170.278 4.11209 184.918C4.11209 184.918 9.38209 182.318 19.6821 182.168Z" fill="url(#paint0_linear_24_251)"/>
<path d="M33.582 142.758C33.582 142.758 71.262 123.328 97.892 132.298C97.892 132.298 88.552 130.258 84.002 138.878C79.452 147.498 61.302 165.308 42.032 152.688C42.032 152.688 29.192 141.498 24.552 152.818C24.552 152.818 34.522 117.008 44.972 116.448C44.972 116.448 67.862 105.068 87.242 127.578C87.242 127.578 72.752 120.878 33.592 142.758H33.582Z" fill="url(#paint1_linear_24_251)"/>
<path d="M146.652 82.8576C146.652 82.8576 139.402 101.668 145.012 113.798C145.012 113.798 143.562 109.488 147.412 106.888C151.262 104.288 158.732 94.7976 151.782 86.3376C151.782 86.3376 145.832 80.8476 150.942 78.0676C150.942 78.0676 134.532 84.6176 134.802 89.5876C134.802 89.5876 130.602 100.998 142.242 108.998C142.242 108.998 138.332 102.498 146.662 82.8576H146.652Z" fill="url(#paint2_linear_24_251)"/>
<path d="M150.222 111.568C150.222 111.568 130.262 108.768 119.712 116.968C119.712 116.968 123.582 114.588 126.982 117.738C130.382 120.888 141.322 126.038 147.992 117.348C147.992 117.348 152.002 110.308 155.862 114.658C155.862 114.658 145.762 100.148 140.982 101.538C140.982 101.538 128.922 100.028 123.762 113.168C123.762 113.168 129.212 107.888 150.222 111.558V111.568Z" fill="url(#paint3_linear_24_251)"/>
<path d="M196.492 56.8576C196.672 71.4776 220.762 81.2076 220.762 81.2076C240.112 85.1276 236.852 89.7076 236.852 89.7076C223.972 58.3476 204.712 48.3976 204.712 48.3976C204.712 48.3976 219.212 50.7876 236.442 81.1476C236.442 81.1476 249.132 37.4376 215.132 37.9176C215.132 37.9176 208.432 37.2076 193.782 41.2776C193.782 41.2776 196.362 46.5576 196.492 56.8476V56.8576Z" fill="url(#paint4_linear_24_251)"/>
<path d="M294.482 29.0076C305.192 19.0576 328.852 29.7976 328.852 29.7976C345.032 41.1076 346.102 35.5976 346.102 35.5976C314.502 47.8876 294.012 40.7876 294.012 40.7876C294.012 40.7876 305.732 49.6476 339.612 41.1976C339.612 41.1976 316.702 80.5176 293.602 55.5576C293.602 55.5576 288.472 51.1876 281.312 37.7776C281.312 37.7776 286.912 36.0076 294.462 29.0076H294.482Z" fill="url(#paint5_linear_24_251)"/>
<path d="M227.792 44.3876C234.912 57.1476 260.732 54.2276 260.732 54.2276C279.612 48.4476 278.932 54.0276 278.932 54.0276C252.652 32.5976 230.982 33.0376 230.982 33.0376C230.982 33.0376 244.862 28.2276 274.492 46.6976C274.492 46.6976 264.812 2.22765 235.152 18.8576C235.152 18.8576 228.922 21.4277 217.982 31.9877C217.982 31.9877 222.772 35.3976 227.792 44.3876Z" fill="url(#paint6_linear_24_251)"/>
<path d="M241.342 72.1477C245.622 78.5477 259.042 75.9177 259.042 75.9177C268.702 72.0877 268.582 75.0477 268.582 75.0477C253.892 64.9177 242.532 66.0577 242.532 66.0577C242.532 66.0577 249.612 62.9477 265.942 71.3877C265.942 71.3877 258.982 48.4577 244.122 58.4477C244.122 58.4477 240.962 60.0577 235.672 66.0677C235.672 66.0677 238.332 67.6577 241.342 72.1577V72.1477Z" fill="url(#paint7_linear_24_251)"/>
<path d="M286.472 13.4177C281.742 7.34767 268.542 10.9577 268.542 10.9577C259.192 15.4877 259.092 12.5277 259.092 12.5277C274.492 21.5577 285.732 19.5777 285.732 19.5777C285.732 19.5777 278.902 23.1977 261.992 15.9777C261.992 15.9777 270.612 38.3377 284.702 27.2877C284.702 27.2877 287.732 25.4477 292.572 19.0777C292.572 19.0777 289.802 17.6877 286.472 13.4177Z" fill="url(#paint8_linear_24_251)"/>
<path d="M245.082 98.3476C245.082 98.3476 233.522 87.2376 217.372 94.0476C217.372 94.0476 234.522 91.8876 239.292 97.5776C239.292 97.5776 232.622 102.738 217.682 100.208C217.682 100.208 210.542 93.1576 207.782 97.6576C207.782 97.6576 216.362 85.5276 222.822 84.5376C222.822 84.5376 236.962 83.0376 245.082 98.3576V98.3476Z" fill="url(#paint9_linear_24_251)"/>
<path d="M157.172 51.7676C157.172 51.7676 169.152 41.0976 185.022 48.5176C185.022 48.5176 167.962 45.6976 162.982 51.2076C162.982 51.2076 169.452 56.6176 184.482 54.6576C184.482 54.6576 191.892 47.8776 194.472 52.4876C194.472 52.4876 186.352 40.0376 179.942 38.7976C179.942 38.7976 165.872 36.7576 157.172 51.7576V51.7676Z" fill="url(#paint10_linear_24_251)"/>
<path d="M305.462 39.3676C305.462 39.3676 293.902 28.2576 277.752 35.0676C277.752 35.0676 294.902 32.9076 299.672 38.5976C299.672 38.5976 293.002 43.7576 278.062 41.2276C278.062 41.2276 270.922 34.1776 268.162 38.6776C268.162 38.6776 276.742 26.5476 283.202 25.5576C283.202 25.5576 297.342 24.0576 305.462 39.3776V39.3676Z" fill="url(#paint11_linear_24_251)"/>
<path d="M336.102 24.2076C336.102 24.2076 325.852 23.4976 320.722 33.4776C320.722 33.4776 328.252 25.3676 332.932 26.2076C332.932 26.2076 331.772 31.4876 323.402 36.3776C323.402 36.3776 316.992 35.8476 317.492 39.1976C317.492 39.1976 316.722 29.7176 319.482 26.5676C319.482 26.5676 325.812 20.0176 336.092 24.2076H336.102Z" fill="url(#paint12_linear_24_251)"/>
<path d="M183.252 86.0177C183.252 86.0177 167.552 89.2877 164.062 106.458C164.062 106.458 171.962 91.0777 179.352 90.3577C179.352 90.3577 179.842 98.7777 169.322 109.678C169.322 109.678 159.462 111.598 161.622 116.408C161.622 116.408 156.452 102.478 159.282 96.5877C159.282 96.5877 166.022 84.0677 183.252 86.0177Z" fill="url(#paint13_linear_24_251)"/>
<path d="M138.782 114.238C153.072 117.308 167.912 95.9876 167.912 95.9876C176.032 77.9976 179.772 82.1876 179.772 82.1876C146.332 87.7876 132.352 104.358 132.352 104.358C132.352 104.358 137.902 90.7476 171.332 80.6876C171.332 80.6876 131.532 58.6076 124.452 91.8676C124.452 91.8676 122.272 98.2476 122.982 113.428C122.982 113.428 128.702 112.078 138.772 114.248L138.782 114.238Z" fill="url(#paint14_linear_24_251)"/>
<path d="M161.192 78.9676C161.192 78.9676 202.272 68.5076 226.212 83.2276C226.212 83.2276 217.572 79.1376 211.192 86.5176C204.812 93.8976 183.132 107.168 167.182 90.5476C167.182 90.5476 157.182 76.7576 150.122 86.7376C150.122 86.7376 167.882 54.0876 178.192 55.8876C178.192 55.8876 203.052 49.9476 216.872 76.2376C216.872 76.2376 204.262 66.4576 161.182 78.9676H161.192Z" fill="url(#paint15_linear_24_251)"/>
<path d="M284.822 46.0076C284.822 46.0076 273.532 62.7076 276.272 75.7876C276.272 75.7876 275.832 71.2576 280.162 69.5976C284.492 67.9376 293.912 60.3676 289.042 50.5576C289.042 50.5576 284.482 43.8676 290.082 42.3076C290.082 42.3076 272.612 45.0076 271.762 49.9076C271.762 49.9076 265.102 60.0776 274.642 70.4876C274.642 70.4876 272.292 63.2676 284.822 46.0076Z" fill="url(#paint16_linear_24_251)"/>
<path d="M281.852 74.7976C281.852 74.7976 263.032 67.5776 250.912 73.2076C250.912 73.2076 255.222 71.7576 257.822 75.5976C260.422 79.4376 269.922 86.9076 278.382 79.9376C278.382 79.9376 283.872 73.9776 286.652 79.0876C286.652 79.0876 280.072 62.6876 275.102 62.9576C275.102 62.9576 263.692 58.7776 255.712 70.4176C255.712 70.4176 262.212 66.4976 281.862 74.7976H281.852Z" fill="url(#paint17_linear_24_251)"/>
<path d="M336.542 54.9276C336.542 54.9276 378.772 58.5877 396.522 80.3877C396.522 80.3877 389.712 73.6776 381.262 78.5476C372.812 83.4176 347.972 88.7876 338.392 67.8376C338.392 67.8376 333.502 51.5276 323.542 58.6176C323.542 58.6176 351.072 33.6477 360.222 38.7477C360.222 38.7477 385.652 41.3376 390.032 70.7077C390.032 70.7077 381.352 57.3176 336.552 54.9276H336.542Z" fill="url(#paint18_linear_24_251)"/>
<path d="M384.602 32.3476C384.602 32.3476 369.272 27.6476 357.932 41.0076C357.932 41.0076 372.262 31.3376 379.082 34.2676C379.082 34.2676 375.452 41.8776 360.982 46.3676C360.982 46.3676 351.422 43.2976 350.992 48.5576C350.992 48.5576 353.182 33.8576 358.492 30.0576C358.492 30.0576 370.432 22.3376 384.592 32.3476H384.602Z" fill="url(#paint19_linear_24_251)"/>
<path d="M340.192 99.8576C354.802 99.6276 364.452 75.4976 364.452 75.4976C368.302 56.1376 372.892 59.3776 372.892 59.3776C341.582 72.3776 331.702 91.6776 331.702 91.6776C331.702 91.6776 334.032 77.1676 364.342 59.8176C364.342 59.8176 320.592 47.2876 321.192 81.2876C321.192 81.2876 320.512 87.9976 324.632 102.628C324.632 102.628 329.902 100.028 340.192 99.8576Z" fill="url(#paint20_linear_24_251)"/>
<path d="M162.672 0.277649C162.672 0.277649 146.912 3.26764 143.112 20.3676C143.112 20.3676 151.282 5.13765 158.682 4.54765C158.682 4.54765 159.022 12.9777 148.312 23.6877C148.312 23.6877 138.422 25.4276 140.492 30.2776C140.492 30.2776 135.582 16.2576 138.512 10.4176C138.512 10.4176 145.482 -1.98235 162.672 0.277649Z" fill="url(#paint21_linear_24_251)"/>
<path d="M393.772 95.1176C401.442 95.7476 407.742 83.6076 407.742 83.6076C410.762 73.6676 413.002 75.5976 413.002 75.5976C395.922 80.7876 389.752 90.3876 389.752 90.3876C389.752 90.3876 391.722 82.9076 408.492 75.3876C408.492 75.3876 386.212 66.5676 384.782 84.4076C384.782 84.4076 384.082 87.8876 385.482 95.7676C385.482 95.7676 388.372 94.6776 393.782 95.1176H393.772Z" fill="url(#paint22_linear_24_251)"/>
<path d="M429.972 93.4076C429.972 93.4076 429.382 77.3776 413.042 71.0576C413.042 71.0576 426.882 81.4176 426.352 88.8276C426.352 88.8276 417.972 87.8976 408.982 75.6976C408.982 75.6976 408.742 65.6576 403.632 66.9776C403.632 66.9776 418.232 64.2176 423.562 67.9976C423.562 67.9976 434.772 76.7376 429.972 93.4076Z" fill="url(#paint23_linear_24_251)"/>
<path d="M410.492 55.1377C410.492 55.1377 395.102 42.3977 383.582 43.0177C383.582 43.0177 387.592 43.2677 389.272 47.4677C390.952 51.6677 398.122 61.3877 406.642 58.3377C406.642 58.3377 412.392 55.1277 414.032 60.4777C414.032 60.4777 410.832 44.1077 406.422 42.6177C406.422 42.6177 397.062 35.0577 388.232 42.2877C388.232 42.2877 394.552 41.1777 410.502 55.1277L410.492 55.1377Z" fill="url(#paint24_linear_24_251)"/>
<path d="M383.152 67.7076C385.732 74.7776 399.362 75.7176 399.362 75.7176C409.642 74.5776 408.802 77.3176 408.802 77.3176C397.062 64.1176 385.792 62.3176 385.792 62.3176C385.792 62.3176 393.402 61.1976 407.142 73.2276C407.142 73.2276 406.002 50.0176 389.192 55.5976C389.192 55.5976 385.742 56.3076 379.152 60.5876C379.152 60.5876 381.332 62.7476 383.152 67.7176V67.7076Z" fill="url(#paint25_linear_24_251)"/>
<path d="M279.792 114.868C279.792 114.868 260.972 122.088 248.852 116.458C248.852 116.458 253.162 117.908 255.762 114.068C258.362 110.228 267.862 102.758 276.322 109.728C276.322 109.728 281.812 115.688 284.592 110.578C284.592 110.578 278.012 126.978 273.042 126.708C273.042 126.708 261.632 130.888 253.652 119.248C253.652 119.248 260.152 123.168 279.802 114.868H279.792Z" fill="url(#paint26_linear_24_251)"/>
<path d="M482.422 93.0176C482.422 93.0176 441.342 103.478 417.402 88.7576C417.402 88.7576 426.042 92.8476 432.422 85.4676C438.802 78.0876 460.482 64.8176 476.432 81.4376C476.432 81.4376 486.432 95.2276 493.492 85.2476C493.492 85.2476 475.732 117.898 465.422 116.098C465.422 116.098 440.562 122.038 426.742 95.7476C426.742 95.7476 439.352 105.528 482.432 93.0176H482.422Z" fill="url(#paint27_linear_24_251)"/>
<path d="M498.882 65.5876C492.072 69.1676 493.252 82.7876 493.252 82.7876C496.032 92.7976 493.112 92.3676 493.112 92.3676C504.742 78.8276 504.812 67.4176 504.812 67.4176C504.812 67.4176 507.152 74.7876 497.032 90.1276C497.032 90.1276 520.572 85.6376 512.222 69.7976C512.222 69.7976 510.952 66.4876 505.542 60.5876C505.542 60.5876 503.682 63.0576 498.882 65.5776V65.5876Z" fill="url(#paint28_linear_24_251)"/>
<path d="M490.012 60.7076C490.012 60.7076 473.972 60.6076 466.952 76.6576C466.952 76.6576 477.902 63.2776 485.282 64.1276C485.282 64.1276 483.992 72.4576 471.422 80.9176C471.422 80.9176 461.382 80.7176 462.482 85.8876C462.482 85.8876 460.362 71.1776 464.352 66.0176C464.352 66.0176 473.572 55.1876 490.012 60.7176V60.7076Z" fill="url(#paint29_linear_24_251)"/>
<path d="M412.352 129.998C412.352 129.998 403.362 111.958 390.622 107.908C390.622 107.908 394.782 109.748 394.102 114.338C393.422 118.928 395.382 130.848 406.322 131.428C406.322 131.428 414.392 130.748 412.992 136.388C412.992 136.388 419.232 119.858 415.382 116.698C415.382 116.698 409.802 105.898 396.042 109.088C396.042 109.088 403.482 110.588 412.352 129.988V129.998Z" fill="url(#paint30_linear_24_251)"/>
<path d="M426.632 85.0476C433.352 88.4376 443.922 79.7876 443.922 79.7876C450.632 71.9176 451.902 74.4876 451.902 74.4876C434.302 72.9076 424.862 79.3076 424.862 79.3076C424.862 79.3076 429.642 73.2776 447.892 72.6476C447.892 72.6476 431.172 56.5076 422.732 72.0876C422.732 72.0876 420.702 74.9676 418.832 82.5976C418.832 82.5976 421.902 82.6776 426.632 85.0576V85.0476Z" fill="url(#paint31_linear_24_251)"/>
<path d="M120.912 155.078C120.912 155.078 126.542 163.668 137.592 161.728C137.592 161.728 126.572 160.628 124.412 156.388C124.412 156.388 129.312 154.128 138.282 157.838C138.282 157.838 141.732 163.268 144.102 160.848C144.102 160.848 137.012 167.188 132.832 166.888C132.832 166.888 123.792 165.798 120.912 155.078Z" fill="url(#paint32_linear_24_251)"/>
<path d="M63.0099 113.279C66.4699 127.479 92.1299 131.559 92.1299 131.559C111.86 131.029 109.72 136.229 109.72 136.229C90.1199 108.57 69.1099 103.2 69.1099 103.2C69.1099 103.2 83.7699 102.27 107.39 127.979C107.39 127.979 109.93 82.5403 76.9099 90.6501C76.9099 90.6501 70.2199 91.47 56.8599 98.7198C56.8599 98.7198 60.5599 103.28 62.9999 113.289L63.0099 113.279Z" fill="url(#paint33_linear_24_251)"/>
<path d="M152.23 64.1207C160.43 52.021 185.9 57.1709 185.9 57.1709C204.21 64.5607 204.01 58.9409 204.01 58.9409C175.98 78.0204 154.43 75.7104 154.43 75.7104C154.43 75.7104 167.84 81.7103 198.96 65.8607C198.96 65.8607 185.47 109.33 157.36 90.1901C157.36 90.1901 151.38 87.0901 141.39 75.6304C141.39 75.6304 146.45 72.6505 152.23 64.1307V64.1207Z" fill="url(#paint34_linear_24_251)"/>
<path d="M90.7099 94.0998C100.52 104.93 125.02 96.2798 125.02 96.2798C142.11 86.4098 142.71 91.9898 142.71 91.9898C112.29 77.0198 91.2699 82.3198 91.2699 82.3198C91.2699 82.3198 103.71 74.5098 136.74 85.8498C136.74 85.8498 117.31 44.6898 92.1499 67.5698C92.1499 67.5698 86.6599 71.4798 78.3699 84.2198C78.3699 84.2198 83.7999 86.4598 90.7099 94.0998Z" fill="url(#paint35_linear_24_251)"/>
<path d="M110.15 118.099C115.76 123.369 128.25 117.789 128.25 117.789C136.8 111.889 137.35 114.789 137.35 114.789C120.75 108.219 109.95 111.889 109.95 111.889C109.95 111.889 116.15 107.259 133.96 111.819C133.96 111.819 122.02 91.0493 109.79 104.109C109.79 104.109 107.07 106.389 103.27 113.429C103.27 113.429 106.21 114.379 110.16 118.089L110.15 118.099Z" fill="url(#paint36_linear_24_251)"/>
<path d="M140.92 50.7306C134.94 45.8806 122.89 52.3606 122.89 52.3606C114.79 58.8706 114.03 56.0206 114.03 56.0206C131.06 61.3606 141.57 56.9106 141.57 56.9106C141.57 56.9106 135.73 61.9806 117.63 58.7406C117.63 58.7406 131.06 78.5806 142.3 64.6506C142.3 64.6506 144.84 62.1706 148.12 54.8806C148.12 54.8806 145.11 54.1506 140.9 50.7406L140.92 50.7306Z" fill="url(#paint37_linear_24_251)"/>
<path d="M119.68 142.788C119.68 142.788 105.91 134.558 91.7099 144.818C91.7099 144.818 107.94 138.848 113.86 143.328C113.86 143.328 108.52 149.848 93.3899 150.748C93.3899 150.748 84.8399 145.478 83.1699 150.488C83.1699 150.488 88.8099 136.738 94.8799 134.318C94.8799 134.318 108.32 129.678 119.68 142.778V142.788Z" fill="url(#paint38_linear_24_251)"/>
<path d="M23.5498 117.159C23.5498 117.159 32.8198 104.069 49.9598 107.739C49.9598 107.739 32.7098 108.829 29.0898 115.319C29.0898 115.319 36.6098 119.129 50.8098 113.849C50.8098 113.849 56.5098 105.579 60.0598 109.489C60.0598 109.489 49.3498 99.1892 42.8298 99.4192C42.8298 99.4192 28.6598 100.599 23.5598 117.169L23.5498 117.159Z" fill="url(#paint39_linear_24_251)"/>
<path d="M165.26 71.7501C165.26 71.7501 151.49 63.5201 137.29 73.7801C137.29 73.7801 153.52 67.8101 159.44 72.2901C159.44 72.2901 154.1 78.8101 138.97 79.7101C138.97 79.7101 130.42 74.4401 128.75 79.4501C128.75 79.4501 134.39 65.7001 140.46 63.2801C140.46 63.2801 153.9 58.6401 165.26 71.7401V71.7501Z" fill="url(#paint40_linear_24_251)"/>
<path d="M191.71 50.0804C191.71 50.0804 181.57 51.6904 178.81 62.5704C178.81 62.5704 184.33 52.9704 189.08 52.7404C189.08 52.7404 189.14 58.1404 182.08 64.8004C182.08 64.8004 175.72 65.7304 176.95 68.8704C176.95 68.8704 174.07 59.8004 176.06 56.1204C176.06 56.1204 180.75 48.3204 191.72 50.0904L191.71 50.0804Z" fill="url(#paint41_linear_24_251)"/>
<path d="M56.6597 144.668C56.6597 144.668 42.0897 151.388 42.5497 168.898C42.5497 168.898 46.7897 152.138 53.8297 149.778C53.8297 149.778 56.1997 157.868 48.3997 170.858C48.3997 170.858 39.2297 174.938 42.4097 179.148C42.4097 179.148 34.2397 166.728 35.6697 160.358C35.6697 160.358 39.4197 146.648 56.6497 144.668H56.6597Z" fill="url(#paint42_linear_24_251)"/>
</g>
<defs>
<linearGradient id="paint0_linear_24_251" x1="5.07498" y1="148.053" x2="37.6127" y2="169.5" gradientUnits="userSpaceOnUse">
<stop stop-color="#9F2A00"/>
<stop offset="0.1" stop-color="#A82B00"/>
<stop offset="0.25" stop-color="#C12F01"/>
<stop offset="0.43" stop-color="#E53603"/>
<stop offset="0.66" stop-color="#E57A00"/>
<stop offset="1" stop-color="#FFEA9F"/>
</linearGradient>
<linearGradient id="paint1_linear_24_251" x1="82.4863" y1="114.182" x2="29.7797" y2="158.991" gradientUnits="userSpaceOnUse">
<stop stop-color="#FF7300"/>
<stop offset="0.18" stop-color="#F97C00"/>
<stop offset="0.47" stop-color="#EA9502"/>
<stop offset="0.55" stop-color="#E59E03"/>
<stop offset="0.87" stop-color="#E5C500"/>
<stop offset="0.99" stop-color="#BF6F00"/>
</linearGradient>
<linearGradient id="paint2_linear_24_251" x1="135.65" y1="107.414" x2="154.118" y2="80.1984" gradientUnits="userSpaceOnUse">
<stop stop-color="#FF7300"/>
<stop offset="0.18" stop-color="#F97C00"/>
<stop offset="0.47" stop-color="#EA9502"/>
<stop offset="0.55" stop-color="#E59E03"/>
<stop offset="0.87" stop-color="#E5C500"/>
<stop offset="0.99" stop-color="#BF6F00"/>
</linearGradient>
<linearGradient id="paint3_linear_24_251" x1="123.757" y1="106.452" x2="154.446" y2="118.282" gradientUnits="userSpaceOnUse">
<stop stop-color="#FF7300"/>
<stop offset="0.18" stop-color="#F97C00"/>
<stop offset="0.47" stop-color="#EA9502"/>
<stop offset="0.55" stop-color="#E59E03"/>
<stop offset="0.87" stop-color="#E5C500"/>
<stop offset="0.99" stop-color="#BF6F00"/>
</linearGradient>
<linearGradient id="paint4_linear_24_251" x1="230.685" y1="42.3655" x2="209.142" y2="74.8395" gradientUnits="userSpaceOnUse">
<stop stop-color="#9F2A00"/>
<stop offset="0.1" stop-color="#A82B00"/>
<stop offset="0.25" stop-color="#C12F01"/>
<stop offset="0.43" stop-color="#E53603"/>
<stop offset="0.66" stop-color="#E57A00"/>
<stop offset="1" stop-color="#FFEA9F"/>
</linearGradient>
<linearGradient id="paint5_linear_24_251" x1="307.545" y1="63.7279" x2="316.225" y2="25.7369" gradientUnits="userSpaceOnUse">
<stop stop-color="#9F2A00"/>
<stop offset="0.1" stop-color="#A82B00"/>
<stop offset="0.25" stop-color="#C12F01"/>
<stop offset="0.43" stop-color="#E53603"/>
<stop offset="0.66" stop-color="#E57A00"/>
<stop offset="1" stop-color="#FFEA9F"/>
</linearGradient>
<linearGradient id="paint6_linear_24_251" x1="250.925" y1="15.3528" x2="247.474" y2="54.1697" gradientUnits="userSpaceOnUse">
<stop stop-color="#9F2A00"/>
<stop offset="0.1" stop-color="#A82B00"/>
<stop offset="0.25" stop-color="#C12F01"/>
<stop offset="0.43" stop-color="#E53603"/>
<stop offset="0.66" stop-color="#E57A00"/>
<stop offset="1" stop-color="#FFEA9F"/>
</linearGradient>
<linearGradient id="paint7_linear_24_251" x1="252.239" y1="55.9248" x2="252.07" y2="76.4341" gradientUnits="userSpaceOnUse">
<stop stop-color="#9F2A00"/>
<stop offset="0.1" stop-color="#A82B00"/>
<stop offset="0.25" stop-color="#C12F01"/>
<stop offset="0.43" stop-color="#E53603"/>
<stop offset="0.66" stop-color="#E57A00"/>
<stop offset="1" stop-color="#FFEA9F"/>
</linearGradient>
<linearGradient id="paint8_linear_24_251" x1="276.763" y1="30.385" x2="275.429" y2="9.91849" gradientUnits="userSpaceOnUse">
<stop stop-color="#9F2A00"/>
<stop offset="0.1" stop-color="#A82B00"/>
<stop offset="0.25" stop-color="#C12F01"/>
<stop offset="0.43" stop-color="#E53603"/>
<stop offset="0.66" stop-color="#E57A00"/>
<stop offset="1" stop-color="#FFEA9F"/>
</linearGradient>
<linearGradient id="paint9_linear_24_251" x1="234.751" y1="87.0834" x2="219.713" y2="106.766" gradientUnits="userSpaceOnUse">
<stop stop-color="#FF7300"/>
<stop offset="0.18" stop-color="#F97C00"/>
<stop offset="0.47" stop-color="#EA9502"/>
<stop offset="0.55" stop-color="#E59E03"/>
<stop offset="0.87" stop-color="#E5C500"/>
<stop offset="0.99" stop-color="#BF6F00"/>
</linearGradient>
<linearGradient id="paint10_linear_24_251" x1="167.921" y1="40.9184" x2="182.199" y2="61.1591" gradientUnits="userSpaceOnUse">
<stop stop-color="#FF7300"/>
<stop offset="0.18" stop-color="#F97C00"/>
<stop offset="0.47" stop-color="#EA9502"/>
<stop offset="0.55" stop-color="#E59E03"/>
<stop offset="0.87" stop-color="#E5C500"/>
<stop offset="0.99" stop-color="#BF6F00"/>
</linearGradient>
<linearGradient id="paint11_linear_24_251" x1="295.126" y1="28.1046" x2="280.089" y2="47.7875" gradientUnits="userSpaceOnUse">
<stop stop-color="#FF7300"/>
<stop offset="0.18" stop-color="#F97C00"/>
<stop offset="0.47" stop-color="#EA9502"/>
<stop offset="0.55" stop-color="#E59E03"/>
<stop offset="0.87" stop-color="#E5C500"/>
<stop offset="0.99" stop-color="#BF6F00"/>
</linearGradient>
<linearGradient id="paint12_linear_24_251" x1="326.392" y1="22.9202" x2="327.094" y2="38.7646" gradientUnits="userSpaceOnUse">
<stop stop-color="#FF7300"/>
<stop offset="0.18" stop-color="#F97C00"/>
<stop offset="0.47" stop-color="#EA9502"/>
<stop offset="0.55" stop-color="#E59E03"/>
<stop offset="0.87" stop-color="#E5C500"/>
<stop offset="0.99" stop-color="#BF6F00"/>
</linearGradient>
<linearGradient id="paint13_linear_24_251" x1="168.116" y1="88.1861" x2="175.873" y2="111.71" gradientUnits="userSpaceOnUse">
<stop stop-color="#FF7300"/>
<stop offset="0.18" stop-color="#F97C00"/>
<stop offset="0.47" stop-color="#EA9502"/>
<stop offset="0.55" stop-color="#E59E03"/>
<stop offset="0.87" stop-color="#E5C500"/>
<stop offset="0.99" stop-color="#BF6F00"/>
</linearGradient>
<linearGradient id="paint14_linear_24_251" x1="132.224" y1="77.7055" x2="159.108" y2="105.917" gradientUnits="userSpaceOnUse">
<stop stop-color="#9F2A00"/>
<stop offset="0.1" stop-color="#A82B00"/>
<stop offset="0.25" stop-color="#C12F01"/>
<stop offset="0.43" stop-color="#E53603"/>
<stop offset="0.66" stop-color="#E57A00"/>
<stop offset="1" stop-color="#FFEA9F"/>
</linearGradient>
<linearGradient id="paint15_linear_24_251" x1="215.248" y1="62.1055" x2="153.827" y2="93.916" gradientUnits="userSpaceOnUse">
<stop stop-color="#FF7300"/>
<stop offset="0.18" stop-color="#F97C00"/>
<stop offset="0.47" stop-color="#EA9502"/>
<stop offset="0.55" stop-color="#E59E03"/>
<stop offset="0.87" stop-color="#E5C500"/>
<stop offset="0.99" stop-color="#BF6F00"/>
</linearGradient>
<linearGradient id="paint16_linear_24_251" x1="268.593" y1="67.4925" x2="292.706" y2="45.1246" gradientUnits="userSpaceOnUse">
<stop stop-color="#FF7300"/>
<stop offset="0.18" stop-color="#F97C00"/>
<stop offset="0.47" stop-color="#EA9502"/>
<stop offset="0.55" stop-color="#E59E03"/>
<stop offset="0.87" stop-color="#E5C500"/>
<stop offset="0.99" stop-color="#BF6F00"/>
</linearGradient>
<linearGradient id="paint17_linear_24_251" x1="257.209" y1="63.8652" x2="284.454" y2="82.2904" gradientUnits="userSpaceOnUse">
<stop stop-color="#FF7300"/>
<stop offset="0.18" stop-color="#F97C00"/>
<stop offset="0.47" stop-color="#EA9502"/>
<stop offset="0.55" stop-color="#E59E03"/>
<stop offset="0.87" stop-color="#E5C500"/>
<stop offset="0.99" stop-color="#BF6F00"/>
</linearGradient>
<linearGradient id="paint18_linear_24_251" x1="393.162" y1="56.848" x2="324.677" y2="66.6314" gradientUnits="userSpaceOnUse">
<stop stop-color="#FF7300"/>
<stop offset="0.18" stop-color="#F97C00"/>
<stop offset="0.47" stop-color="#EA9502"/>
<stop offset="0.55" stop-color="#E59E03"/>
<stop offset="0.87" stop-color="#E5C500"/>
<stop offset="0.99" stop-color="#BF6F00"/>
</linearGradient>
<linearGradient id="paint19_linear_24_251" x1="370.334" y1="26.9731" x2="365.792" y2="51.3129" gradientUnits="userSpaceOnUse">
<stop stop-color="#FF7300"/>
<stop offset="0.18" stop-color="#F97C00"/>
<stop offset="0.47" stop-color="#EA9502"/>
<stop offset="0.55" stop-color="#E59E03"/>
<stop offset="0.87" stop-color="#E5C500"/>
<stop offset="0.99" stop-color="#BF6F00"/>
</linearGradient>
<linearGradient id="paint20_linear_24_251" x1="325.552" y1="65.7442" x2="358.109" y2="87.1623" gradientUnits="userSpaceOnUse">
<stop stop-color="#9F2A00"/>
<stop offset="0.1" stop-color="#A82B00"/>
<stop offset="0.25" stop-color="#C12F01"/>
<stop offset="0.43" stop-color="#E53603"/>
<stop offset="0.66" stop-color="#E57A00"/>
<stop offset="1" stop-color="#FFEA9F"/>
</linearGradient>
<linearGradient id="paint21_linear_24_251" x1="147.467" y1="2.19405" x2="154.8" y2="25.8537" gradientUnits="userSpaceOnUse">
<stop stop-color="#FF7300"/>
<stop offset="0.18" stop-color="#F97C00"/>
<stop offset="0.47" stop-color="#EA9502"/>
<stop offset="0.55" stop-color="#E59E03"/>
<stop offset="0.87" stop-color="#E5C500"/>
<stop offset="0.99" stop-color="#BF6F00"/>
</linearGradient>
<linearGradient id="paint22_linear_24_251" x1="387.837" y1="76.4975" x2="403.791" y2="89.4028" gradientUnits="userSpaceOnUse">
<stop stop-color="#9F2A00"/>
<stop offset="0.1" stop-color="#A82B00"/>
<stop offset="0.25" stop-color="#C12F01"/>
<stop offset="0.43" stop-color="#E53603"/>
<stop offset="0.66" stop-color="#E57A00"/>
<stop offset="1" stop-color="#FFEA9F"/>
</linearGradient>
<linearGradient id="paint23_linear_24_251" x1="430.376" y1="78.1254" x2="405.885" y2="81.8294" gradientUnits="userSpaceOnUse">
<stop stop-color="#FF7300"/>
<stop offset="0.18" stop-color="#F97C00"/>
<stop offset="0.47" stop-color="#EA9502"/>
<stop offset="0.55" stop-color="#E59E03"/>
<stop offset="0.87" stop-color="#E5C500"/>
<stop offset="0.99" stop-color="#BF6F00"/>
</linearGradient>
<linearGradient id="paint24_linear_24_251" x1="391.043" y1="36.805" x2="412.076" y2="62.1036" gradientUnits="userSpaceOnUse">
<stop stop-color="#FF7300"/>
<stop offset="0.18" stop-color="#F97C00"/>
<stop offset="0.47" stop-color="#EA9502"/>
<stop offset="0.55" stop-color="#E59E03"/>
<stop offset="0.87" stop-color="#E5C500"/>
<stop offset="0.99" stop-color="#BF6F00"/>
</linearGradient>
<linearGradient id="paint25_linear_24_251" x1="397.856" y1="54.5053" x2="392.67" y2="73.7122" gradientUnits="userSpaceOnUse">
<stop stop-color="#9F2A00"/>
<stop offset="0.1" stop-color="#A82B00"/>
<stop offset="0.25" stop-color="#C12F01"/>
<stop offset="0.43" stop-color="#E53603"/>
<stop offset="0.66" stop-color="#E57A00"/>
<stop offset="1" stop-color="#FFEA9F"/>
</linearGradient>
<linearGradient id="paint26_linear_24_251" x1="255.156" y1="125.809" x2="282.4" y2="107.384" gradientUnits="userSpaceOnUse">
<stop stop-color="#FF7300"/>
<stop offset="0.18" stop-color="#F97C00"/>
<stop offset="0.47" stop-color="#EA9502"/>
<stop offset="0.55" stop-color="#E59E03"/>
<stop offset="0.87" stop-color="#E5C500"/>
<stop offset="0.99" stop-color="#BF6F00"/>
</linearGradient>
<linearGradient id="paint27_linear_24_251" x1="428.354" y1="109.887" x2="489.784" y2="78.0718" gradientUnits="userSpaceOnUse">
<stop stop-color="#FF7300"/>
<stop offset="0.18" stop-color="#F97C00"/>
<stop offset="0.47" stop-color="#EA9502"/>
<stop offset="0.55" stop-color="#E59E03"/>
<stop offset="0.87" stop-color="#E5C500"/>
<stop offset="0.99" stop-color="#BF6F00"/>
</linearGradient>
<linearGradient id="paint28_linear_24_251" x1="513.855" y1="78.1389" x2="493.48" y2="75.7958" gradientUnits="userSpaceOnUse">
<stop stop-color="#9F2A00"/>
<stop offset="0.1" stop-color="#A82B00"/>
<stop offset="0.25" stop-color="#C12F01"/>
<stop offset="0.43" stop-color="#E53603"/>
<stop offset="0.66" stop-color="#E57A00"/>
<stop offset="1" stop-color="#FFEA9F"/>
</linearGradient>
<linearGradient id="paint29_linear_24_251" x1="474.742" y1="59.6466" x2="477.386" y2="84.2651" gradientUnits="userSpaceOnUse">
<stop stop-color="#FF7300"/>
<stop offset="0.18" stop-color="#F97C00"/>
<stop offset="0.47" stop-color="#EA9502"/>
<stop offset="0.55" stop-color="#E59E03"/>
<stop offset="0.87" stop-color="#E5C500"/>
<stop offset="0.99" stop-color="#BF6F00"/>
</linearGradient>
<linearGradient id="paint30_linear_24_251" x1="401.633" y1="105.296" x2="409.257" y2="137.301" gradientUnits="userSpaceOnUse">
<stop stop-color="#FF7300"/>
<stop offset="0.18" stop-color="#F97C00"/>
<stop offset="0.47" stop-color="#EA9502"/>
<stop offset="0.55" stop-color="#E59E03"/>
<stop offset="0.87" stop-color="#E5C500"/>
<stop offset="0.99" stop-color="#BF6F00"/>
</linearGradient>
<linearGradient id="paint31_linear_24_251" x1="428.372" y1="65.3661" x2="437.744" y2="82.926" gradientUnits="userSpaceOnUse">
<stop stop-color="#9F2A00"/>
<stop offset="0.1" stop-color="#A82B00"/>
<stop offset="0.25" stop-color="#C12F01"/>
<stop offset="0.43" stop-color="#E53603"/>
<stop offset="0.66" stop-color="#E57A00"/>
<stop offset="1" stop-color="#FFEA9F"/>
</linearGradient>
<linearGradient id="paint32_linear_24_251" x1="125.753" y1="163.582" x2="137.956" y2="153.451" gradientUnits="userSpaceOnUse">
<stop stop-color="#FF7300"/>
<stop offset="0.18" stop-color="#F97C00"/>
<stop offset="0.47" stop-color="#EA9502"/>
<stop offset="0.55" stop-color="#E59E03"/>
<stop offset="0.87" stop-color="#E5C500"/>
<stop offset="0.99" stop-color="#BF6F00"/>
</linearGradient>
<linearGradient id="paint33_linear_24_251" x1="93.0325" y1="91.4791" x2="79.3473" y2="127.966" gradientUnits="userSpaceOnUse">
<stop stop-color="#9F2A00"/>
<stop offset="0.1" stop-color="#A82B00"/>
<stop offset="0.25" stop-color="#C12F01"/>
<stop offset="0.43" stop-color="#E53603"/>
<stop offset="0.66" stop-color="#E57A00"/>
<stop offset="1" stop-color="#FFEA9F"/>
</linearGradient>
<linearGradient id="paint34_linear_24_251" x1="172.761" y1="94.9866" x2="172.68" y2="56.0177" gradientUnits="userSpaceOnUse">
<stop stop-color="#9F2A00"/>
<stop offset="0.1" stop-color="#A82B00"/>
<stop offset="0.25" stop-color="#C12F01"/>
<stop offset="0.43" stop-color="#E53603"/>
<stop offset="0.66" stop-color="#E57A00"/>
<stop offset="1" stop-color="#FFEA9F"/>
</linearGradient>
<linearGradient id="paint35_linear_24_251" x1="106.725" y1="60.5898" x2="112.088" y2="99.189" gradientUnits="userSpaceOnUse">
<stop stop-color="#9F2A00"/>
<stop offset="0.1" stop-color="#A82B00"/>
<stop offset="0.25" stop-color="#C12F01"/>
<stop offset="0.43" stop-color="#E53603"/>
<stop offset="0.66" stop-color="#E57A00"/>
<stop offset="1" stop-color="#FFEA9F"/>
</linearGradient>
<linearGradient id="paint36_linear_24_251" x1="117.125" y1="99.8391" x2="121.574" y2="119.871" gradientUnits="userSpaceOnUse">
<stop stop-color="#9F2A00"/>
<stop offset="0.1" stop-color="#A82B00"/>
<stop offset="0.25" stop-color="#C12F01"/>
<stop offset="0.43" stop-color="#E53603"/>
<stop offset="0.66" stop-color="#E57A00"/>
<stop offset="1" stop-color="#FFEA9F"/>
</linearGradient>
<linearGradient id="paint37_linear_24_251" x1="135.291" y1="69.4548" x2="129.388" y2="49.8024" gradientUnits="userSpaceOnUse">
<stop stop-color="#9F2A00"/>
<stop offset="0.1" stop-color="#A82B00"/>
<stop offset="0.25" stop-color="#C12F01"/>
<stop offset="0.43" stop-color="#E53603"/>
<stop offset="0.66" stop-color="#E57A00"/>
<stop offset="1" stop-color="#FFEA9F"/>
</linearGradient>
<linearGradient id="paint38_linear_24_251" x1="107.086" y1="134.145" x2="96.8614" y2="156.695" gradientUnits="userSpaceOnUse">
<stop stop-color="#FF7300"/>
<stop offset="0.18" stop-color="#F97C00"/>
<stop offset="0.47" stop-color="#EA9502"/>
<stop offset="0.55" stop-color="#E59E03"/>
<stop offset="0.87" stop-color="#E5C500"/>
<stop offset="0.99" stop-color="#BF6F00"/>
</linearGradient>
<linearGradient id="paint39_linear_24_251" x1="31.5995" y1="104.173" x2="50.0546" y2="120.68" gradientUnits="userSpaceOnUse">
<stop stop-color="#FF7300"/>
<stop offset="0.18" stop-color="#F97C00"/>
<stop offset="0.47" stop-color="#EA9502"/>
<stop offset="0.55" stop-color="#E59E03"/>
<stop offset="0.87" stop-color="#E5C500"/>
<stop offset="0.99" stop-color="#BF6F00"/>
</linearGradient>
<linearGradient id="paint40_linear_24_251" x1="152.668" y1="63.1103" x2="142.443" y2="85.6606" gradientUnits="userSpaceOnUse">
<stop stop-color="#FF7300"/>
<stop offset="0.18" stop-color="#F97C00"/>
<stop offset="0.47" stop-color="#EA9502"/>
<stop offset="0.55" stop-color="#E59E03"/>
<stop offset="0.87" stop-color="#E5C500"/>
<stop offset="0.99" stop-color="#BF6F00"/>
</linearGradient>
<linearGradient id="paint41_linear_24_251" x1="181.955" y1="51.0156" x2="186.201" y2="66.2966" gradientUnits="userSpaceOnUse">
<stop stop-color="#FF7300"/>
<stop offset="0.18" stop-color="#F97C00"/>
<stop offset="0.47" stop-color="#EA9502"/>
<stop offset="0.55" stop-color="#E59E03"/>
<stop offset="0.87" stop-color="#E5C500"/>
<stop offset="0.99" stop-color="#BF6F00"/>
</linearGradient>
<linearGradient id="paint42_linear_24_251" x1="42.4095" y1="150.183" x2="55.2506" y2="171.353" gradientUnits="userSpaceOnUse">
<stop stop-color="#FF7300"/>
<stop offset="0.18" stop-color="#F97C00"/>
<stop offset="0.47" stop-color="#EA9502"/>
<stop offset="0.55" stop-color="#E59E03"/>
<stop offset="0.87" stop-color="#E5C500"/>
<stop offset="0.99" stop-color="#BF6F00"/>
</linearGradient>
<clipPath id="clip0_24_251">
<rect width="513.35" height="184.915" fill="white" transform="matrix(1 0 0 -1 0.649902 184.918)"/>
</clipPath>
</defs>
</svg>
