<svg xmlns="http://www.w3.org/2000/svg" xmlns:xlink="http://www.w3.org/1999/xlink" width="500" zoomAndPan="magnify" viewBox="0 0 375 374.999991" height="500" preserveAspectRatio="xMidYMid meet" version="1.0"><defs><g/><clipPath id="e5a504320e"><path d="M 115.414062 117 L 181 117 L 181 166 L 115.414062 166 Z M 115.414062 117 " clip-rule="nonzero"/></clipPath><clipPath id="f1dfa1185c"><path d="M 195 117 L 260.914062 117 L 260.914062 166 L 195 166 Z M 195 117 " clip-rule="nonzero"/></clipPath><clipPath id="4236a7a501"><path d="M 115.414062 130 L 188 130 L 188 187 L 115.414062 187 Z M 115.414062 130 " clip-rule="nonzero"/></clipPath><clipPath id="516280cc81"><path d="M 197 137 L 260.914062 137 L 260.914062 180 L 197 180 Z M 197 137 " clip-rule="nonzero"/></clipPath><clipPath id="30568b052d"><path d="M 190 130 L 260.914062 130 L 260.914062 187 L 190 187 Z M 190 130 " clip-rule="nonzero"/></clipPath><clipPath id="3390670a36"><path d="M 196 31 L 267.71875 31 L 267.71875 87 L 196 87 Z M 196 31 " clip-rule="nonzero"/></clipPath><clipPath id="bc8a478d30"><rect x="0" width="268" y="0" height="106"/></clipPath><clipPath id="4927b6728a"><rect x="0" width="93" y="0" height="158"/></clipPath></defs><path fill="#000000" d="M 177.164062 152.804688 C 177.164062 152.804688 164.511719 102.519531 158.449219 94.621094 L 168.253906 94.621094 L 165.304688 88.566406 L 187.964844 95.148438 L 187.964844 152.804688 Z M 177.164062 152.804688 " fill-opacity="1" fill-rule="nonzero"/><path fill="#000000" d="M 198.757812 152.804688 C 198.757812 152.804688 211.414062 102.519531 217.472656 94.621094 L 207.671875 94.621094 L 210.621094 88.566406 L 187.957031 95.148438 L 187.957031 152.804688 Z M 198.757812 152.804688 " fill-opacity="1" fill-rule="nonzero"/><path fill="#444444" d="M 121.675781 132 L 131.335938 128.574219 C 131.335938 128.574219 109.992188 55.929688 150.835938 98.039062 C 150.835938 98.039062 159.53125 102.511719 158.214844 98.566406 L 156.898438 94.617188 C 156.898438 94.617188 187.023438 106.988281 178.417969 146.734375 C 169.8125 186.484375 121.671875 131.992188 121.671875 131.992188 " fill-opacity="1" fill-rule="nonzero"/><path fill="#444444" d="M 253.585938 132 L 243.925781 128.574219 C 243.925781 128.574219 265.269531 55.929688 224.425781 98.039062 C 224.425781 98.039062 215.730469 102.511719 217.046875 98.566406 L 218.363281 94.617188 C 218.363281 94.617188 188.238281 106.988281 196.84375 146.734375 C 205.453125 186.484375 253.59375 131.992188 253.59375 131.992188 " fill-opacity="1" fill-rule="nonzero"/><path fill="#ffffff" d="M 117.167969 170.429688 C 117.167969 170.429688 128.777344 181.691406 148.175781 189.765625 C 174.144531 200.582031 214.0625 205.6875 258.761719 170.429688 " fill-opacity="1" fill-rule="nonzero"/><path fill="#ffffff" d="M 259.550781 170.429688 L 212.796875 170.429688 C 186.242188 121.996094 164.714844 170.429688 164.714844 170.429688 L 116.378906 170.429688 " fill-opacity="1" fill-rule="nonzero"/><g clip-path="url(#e5a504320e)"><path fill="#ffffff" d="M 115.488281 165.34375 C 115.488281 165.34375 137.179688 132.265625 122.335938 132.003906 L 143.59375 128.316406 L 140.960938 123.050781 L 152.03125 126.472656 L 149.660156 120.160156 L 161.253906 124.105469 L 159.144531 117.789062 C 159.144531 117.789062 188.21875 130.691406 179.082031 149.90625 C 179.082031 149.90625 151.941406 117.617188 115.488281 165.347656 " fill-opacity="1" fill-rule="nonzero"/></g><g clip-path="url(#f1dfa1185c)"><path fill="#ffffff" d="M 260.4375 165.34375 C 260.4375 165.34375 238.746094 132.265625 253.585938 132.003906 L 232.332031 128.316406 L 234.964844 123.050781 L 223.894531 126.472656 L 226.265625 120.160156 L 214.671875 124.105469 L 216.777344 117.789062 C 216.777344 117.789062 187.703125 130.691406 196.839844 149.90625 C 196.839844 149.90625 223.980469 117.617188 260.4375 165.347656 " fill-opacity="1" fill-rule="nonzero"/></g><path fill="#000000" d="M 179.96875 151.476562 C 179.96875 151.476562 160.121094 121.292969 129.375 149.722656 L 116.375 165.339844 C 116.375 165.339844 125.160156 166.570312 126.5625 165.339844 C 127.964844 164.109375 119.359375 168.144531 117.957031 170.429688 C 117.957031 170.429688 140.445312 193.070312 169.78125 166.21875 C 169.78125 166.21875 174.347656 154.8125 179.96875 151.476562 Z M 179.96875 151.476562 " fill-opacity="1" fill-rule="nonzero"/><g clip-path="url(#4236a7a501)"><path stroke-linecap="butt" transform="matrix(0.498286, 0, 0, 0.498, 115.414766, 80.927851)" fill="none" stroke-linejoin="miter" d="M 129.552036 141.664089 C 129.552036 141.664089 89.720191 81.054459 28.016501 138.142189 L 1.927074 169.502005 C 1.927074 169.502005 19.55782 171.972826 22.372154 169.502005 C 25.186488 167.031184 7.916354 175.133908 5.102019 179.722576 C 5.102019 179.722576 50.233279 225.185681 109.106956 171.266877 C 109.106956 171.266877 118.271181 148.362759 129.552036 141.664089 Z M 129.552036 141.664089 " stroke="#000000" stroke-width="1" stroke-opacity="1" stroke-miterlimit="10"/></g><g clip-path="url(#516280cc81)"><path fill="#000000" d="M 197.535156 151.476562 C 197.535156 151.476562 217.386719 121.292969 248.128906 149.722656 L 261.132812 165.339844 C 261.132812 165.339844 252.347656 166.570312 250.945312 165.339844 C 249.542969 164.109375 258.148438 168.144531 259.550781 170.429688 C 259.550781 170.429688 237.0625 193.070312 207.722656 166.21875 C 207.722656 166.21875 203.160156 154.8125 197.535156 151.476562 Z M 197.535156 151.476562 " fill-opacity="1" fill-rule="nonzero"/></g><g clip-path="url(#30568b052d)"><path stroke-linecap="butt" transform="matrix(0.498286, 0, 0, 0.498, 115.414766, 80.927851)" fill="none" stroke-linejoin="miter" d="M 164.805688 141.664089 C 164.805688 141.664089 204.645372 81.054459 266.341222 138.142189 L 292.438489 169.502005 C 292.438489 169.502005 274.807743 171.972826 271.993409 169.502005 C 269.179075 167.031184 286.449209 175.133908 289.263544 179.722576 C 289.263544 179.722576 244.132284 225.185681 185.250768 171.266877 C 185.250768 171.266877 176.094382 148.362759 164.805688 141.664089 Z M 164.805688 141.664089 " stroke="#000000" stroke-width="1" stroke-opacity="1" stroke-miterlimit="10"/></g><path fill="#000000" d="M 188.882812 173.601562 C 195.542969 173.601562 200.945312 169.65625 200.945312 164.792969 C 200.945312 159.929688 195.542969 155.988281 188.882812 155.988281 C 182.21875 155.988281 176.820312 159.929688 176.820312 164.792969 C 176.820312 169.65625 182.21875 173.601562 188.882812 173.601562 Z M 188.882812 173.601562 " fill-opacity="1" fill-rule="nonzero"/><path stroke-linecap="butt" transform="matrix(0.498286, 0, 0, 0.498, 115.414766, 80.927851)" fill-opacity="1" fill="#ffbbbc" fill-rule="nonzero" stroke-linejoin="miter" d="M 181.158616 206.148594 C 146.547792 206.148594 148.476278 186.091803 148.476278 186.091803 L 147.44932 186.091803 C 147.44932 186.091803 149.299412 206.148594 115.982084 206.148594 L 127.121831 205.254392 C 127.121831 205.254392 145.740337 254.035457 167.878721 205.254392 " stroke="#000000" stroke-width="1" stroke-opacity="1" stroke-miterlimit="10"/><path fill="#ffbbbc" d="M 136.449219 114.101562 C 120.242188 70.273438 147.324219 101.863281 147.324219 101.863281 Z M 136.449219 114.101562 " fill-opacity="1" fill-rule="nonzero"/><path fill="#ffbbbc" d="M 240.207031 114.101562 C 256.410156 70.273438 229.332031 101.863281 229.332031 101.863281 Z M 240.207031 114.101562 " fill-opacity="1" fill-rule="nonzero"/><path fill="#ffffff" d="M 166.136719 154.523438 C 154.863281 140.171875 144.339844 154.820312 144.339844 154.820312 C 144.339844 154.820312 145.109375 160.761719 149.226562 154.5625 C 153.34375 148.363281 160.417969 151.808594 161.21875 154.691406 C 162.023438 157.574219 167.328125 156.046875 166.136719 154.523438 Z M 166.136719 154.523438 " fill-opacity="1" fill-rule="nonzero"/><path fill="#ffffff" d="M 211.632812 154.523438 C 222.90625 140.171875 233.429688 154.820312 233.429688 154.820312 C 233.429688 154.820312 232.660156 160.761719 228.542969 154.5625 C 224.425781 148.363281 217.351562 151.808594 216.550781 154.691406 C 215.746094 157.574219 210.441406 156.046875 211.632812 154.523438 Z M 211.632812 154.523438 " fill-opacity="1" fill-rule="nonzero"/><g transform="matrix(1, 0, 0, 1, 9, 144)"><g clip-path="url(#bc8a478d30)"><g fill="#171616" fill-opacity="1"><g transform="translate(3.941101, 83.175575)"><g><path d="M -2.386719 -51.90625 L 25.457031 -51.90625 L 25.457031 3.253906 L -2.386719 3.253906 Z M 4.121094 -45.402344 L 4.121094 -3.253906 L 18.949219 -3.253906 L 18.949219 -45.402344 Z M 4.121094 -45.402344 "/></g></g></g><g fill="#171616" fill-opacity="1"><g transform="translate(27.009993, 83.175575)"><g><path d="M 22.117188 3.253906 L -2.472656 3.253906 L -2.472656 -24.976562 C -2.472656 -29.71875 -1.667969 -33.886719 -0.0664062 -37.488281 C 1.542969 -41.101562 3.726562 -44.121094 6.480469 -46.542969 C 9.199219 -48.933594 12.246094 -50.71875 15.621094 -51.898438 C 18.949219 -53.0625 22.355469 -53.644531 25.84375 -53.644531 C 29.332031 -53.644531 32.75 -53.0625 36.101562 -51.902344 C 39.519531 -50.71875 42.574219 -48.929688 45.265625 -46.53125 C 47.988281 -44.109375 50.148438 -41.097656 51.757812 -37.488281 C 53.359375 -33.886719 54.164062 -29.71875 54.164062 -24.976562 L 54.164062 3.253906 L 26.324219 3.253906 L 26.324219 -24.976562 C 26.324219 -25.328125 26.28125 -25.542969 26.191406 -25.625 C 26.070312 -25.742188 25.957031 -25.800781 25.84375 -25.800781 C 25.769531 -25.800781 25.652344 -25.730469 25.496094 -25.582031 C 25.410156 -25.503906 25.367188 -25.304688 25.367188 -24.976562 L 25.367188 3.253906 Z M 22.117188 -3.253906 L 22.117188 0 L 18.863281 0 L 18.863281 -24.976562 C 18.863281 -27.199219 19.601562 -28.992188 21.078125 -30.355469 C 22.480469 -31.65625 24.070312 -32.308594 25.84375 -32.308594 C 27.703125 -32.308594 29.320312 -31.644531 30.703125 -30.316406 C 32.117188 -28.953125 32.828125 -27.171875 32.828125 -24.976562 L 32.828125 0 L 29.574219 0 L 29.574219 -3.253906 L 50.910156 -3.253906 L 50.910156 0 L 47.65625 0 L 47.65625 -24.976562 C 47.65625 -28.796875 47.042969 -32.085938 45.816406 -34.84375 C 44.589844 -37.597656 42.964844 -39.875 40.941406 -41.671875 C 38.894531 -43.496094 36.574219 -44.855469 33.976562 -45.753906 C 31.3125 -46.675781 28.601562 -47.136719 25.84375 -47.136719 C 23.089844 -47.136719 20.398438 -46.679688 17.769531 -45.757812 C 15.191406 -44.859375 12.859375 -43.492188 10.777344 -41.660156 C 8.734375 -39.863281 7.101562 -37.589844 5.875 -34.84375 C 4.648438 -32.085938 4.03125 -28.796875 4.03125 -24.976562 L 4.03125 0 L 0.78125 0 L 0.78125 -3.253906 Z M 22.117188 -3.253906 "/></g></g></g><g fill="#171616" fill-opacity="1"><g transform="translate(78.698187, 83.175575)"><g><path d="M 23.589844 3.253906 C 18.644531 3.253906 14.230469 2.320312 10.347656 0.460938 C 6.308594 -1.472656 3.15625 -4.371094 0.882812 -8.238281 C -1.355469 -12.042969 -2.472656 -16.726562 -2.472656 -22.289062 L -2.472656 -64.050781 L 25.367188 -64.050781 L 25.367188 -48.65625 L 22.117188 -48.65625 L 22.117188 -51.90625 L 40.199219 -51.90625 L 40.199219 -25.28125 L 22.117188 -25.28125 L 22.117188 -28.535156 L 25.367188 -28.535156 L 25.367188 -21.335938 C 25.367188 -21.859375 25.144531 -22.34375 24.699219 -22.789062 C 24.25 -23.238281 23.765625 -23.460938 23.242188 -23.460938 L 40.199219 -23.460938 L 40.199219 3.253906 Z M 23.589844 -3.253906 L 36.945312 -3.253906 L 36.945312 0 L 33.695312 0 L 33.695312 -20.207031 L 36.945312 -20.207031 L 36.945312 -16.957031 L 23.242188 -16.957031 C 21.96875 -16.957031 20.921875 -17.367188 20.097656 -18.191406 C 19.273438 -19.011719 18.863281 -20.0625 18.863281 -21.335938 L 18.863281 -31.785156 L 36.945312 -31.785156 L 36.945312 -28.535156 L 33.695312 -28.535156 L 33.695312 -48.65625 L 36.945312 -48.65625 L 36.945312 -45.402344 L 18.863281 -45.402344 L 18.863281 -60.796875 L 22.117188 -60.796875 L 22.117188 -57.546875 L 0.78125 -57.546875 L 0.78125 -60.796875 L 4.03125 -60.796875 L 4.03125 -22.289062 C 4.03125 -17.90625 4.851562 -14.324219 6.488281 -11.535156 C 8.089844 -8.808594 10.3125 -6.765625 13.15625 -5.40625 C 16.152344 -3.96875 19.632812 -3.253906 23.589844 -3.253906 Z M 23.589844 -3.253906 "/></g></g></g><g fill="#171616" fill-opacity="1"><g transform="translate(116.597086, 83.175575)"><g><path d="M 26.890625 -24.796875 C 27.257812 -25 27.460938 -25.214844 27.503906 -25.441406 C 27.558594 -25.734375 27.492188 -26 27.304688 -26.242188 C 27.277344 -26.277344 27.222656 -26.308594 27.136719 -26.34375 C 26.878906 -26.445312 26.503906 -26.496094 26.019531 -26.496094 L 25.957031 -26.496094 L 25.894531 -26.5 C 25.425781 -26.515625 25.144531 -26.46875 25.046875 -26.355469 C 24.777344 -26.046875 24.640625 -25.691406 24.628906 -25.289062 C 24.621094 -24.878906 24.738281 -24.519531 24.984375 -24.207031 C 24.988281 -24.199219 25.007812 -24.191406 25.039062 -24.175781 C 25.21875 -24.105469 25.488281 -24.066406 25.84375 -24.066406 L 53.644531 -24.066406 L 53.644531 3.253906 L 25.84375 3.253906 C 21.925781 3.253906 18.257812 2.511719 14.839844 1.035156 C 11.453125 -0.429688 8.457031 -2.46875 5.851562 -5.070312 C 3.246094 -7.675781 1.210938 -10.671875 -0.253906 -14.058594 C -1.730469 -17.476562 -2.472656 -21.148438 -2.472656 -25.066406 C -2.472656 -30.1875 -1.3125 -34.867188 1.003906 -39.113281 C 3.339844 -43.386719 6.648438 -46.816406 10.941406 -49.402344 C 15.230469 -51.992188 20.277344 -53.316406 26.070312 -53.382812 C 29.015625 -53.382812 31.960938 -53.101562 34.90625 -52.546875 C 38.03125 -51.953125 40.96875 -50.835938 43.726562 -49.195312 C 46.648438 -47.457031 49.058594 -44.925781 50.960938 -41.597656 C 51.832031 -40.066406 52.464844 -38.285156 52.847656 -36.253906 C 53.214844 -34.320312 53.347656 -32.347656 53.25 -30.324219 C 53.144531 -28.1875 52.699219 -26.175781 51.917969 -24.296875 C 51.027344 -22.144531 49.636719 -20.453125 47.742188 -19.21875 L 46.933594 -18.691406 L 28.449219 -18.691406 Z M 30.003906 -19.085938 L 28.449219 -21.941406 L 28.449219 -25.195312 L 45.96875 -25.195312 L 45.96875 -21.941406 L 44.191406 -24.667969 C 44.957031 -25.167969 45.53125 -25.875 45.910156 -26.789062 C 46.402344 -27.972656 46.683594 -29.257812 46.75 -30.644531 C 46.824219 -32.152344 46.726562 -33.617188 46.457031 -35.039062 C 46.207031 -36.359375 45.824219 -37.46875 45.3125 -38.367188 C 43.976562 -40.707031 42.339844 -42.453125 40.402344 -43.605469 C 38.300781 -44.855469 36.066406 -45.703125 33.695312 -46.152344 C 31.148438 -46.636719 28.632812 -46.878906 26.140625 -46.878906 C 21.527344 -46.828125 17.582031 -45.8125 14.300781 -43.832031 C 11.015625 -41.851562 8.484375 -39.238281 6.714844 -35.996094 C 4.925781 -32.722656 4.03125 -29.078125 4.03125 -25.066406 C 4.03125 -22.042969 4.59375 -19.238281 5.71875 -16.644531 C 6.855469 -14.015625 8.433594 -11.691406 10.453125 -9.671875 C 12.472656 -7.652344 14.796875 -6.074219 17.421875 -4.9375 C 20.019531 -3.8125 22.824219 -3.253906 25.84375 -3.253906 L 50.390625 -3.253906 L 50.390625 0 L 47.136719 0 L 47.136719 -20.816406 L 50.390625 -20.816406 L 50.390625 -17.5625 L 25.84375 -17.5625 C 23.226562 -17.5625 21.230469 -18.441406 19.855469 -20.199219 C 18.65625 -21.738281 18.078125 -23.488281 18.128906 -25.449219 C 18.175781 -27.414062 18.847656 -29.140625 20.140625 -30.628906 C 21.601562 -32.304688 23.605469 -33.097656 26.144531 -33 L 26.019531 -29.75 L 26.019531 -33 C 28.878906 -33 31.023438 -32.074219 32.453125 -30.21875 C 33.828125 -28.4375 34.308594 -26.449219 33.898438 -24.253906 C 33.480469 -21.996094 32.183594 -20.273438 30.003906 -19.085938 Z M 30.003906 -19.085938 "/></g></g></g><g fill="#171616" fill-opacity="1"><g transform="translate(167.764931, 83.175575)"><g><path d="M 34.996094 -48.65625 L 34.996094 -25.023438 L 23.503906 -25.023438 C 23.96875 -25.023438 24.410156 -25.230469 24.828125 -25.648438 C 25.246094 -26.066406 25.457031 -26.507812 25.457031 -26.972656 L 25.457031 3.253906 L -2.386719 3.253906 L -2.386719 -26.105469 C -2.386719 -31.261719 -1.253906 -35.769531 1.011719 -39.632812 C 3.285156 -43.511719 6.4375 -46.535156 10.472656 -48.703125 C 14.453125 -50.839844 18.96875 -51.90625 24.023438 -51.90625 L 34.996094 -51.90625 Z M 28.492188 -48.65625 L 31.742188 -48.65625 L 31.742188 -45.402344 L 24.023438 -45.402344 C 20.058594 -45.402344 16.570312 -44.59375 13.550781 -42.972656 C 10.589844 -41.378906 8.28125 -39.171875 6.621094 -36.34375 C 4.953125 -33.496094 4.121094 -30.085938 4.121094 -26.105469 L 4.121094 0 L 0.867188 0 L 0.867188 -3.253906 L 22.203125 -3.253906 L 22.203125 0 L 18.949219 0 L 18.949219 -26.972656 C 18.949219 -28.304688 19.375 -29.398438 20.226562 -30.25 C 21.082031 -31.101562 22.171875 -31.527344 23.503906 -31.527344 L 31.742188 -31.527344 L 31.742188 -28.273438 L 28.492188 -28.273438 Z M 28.492188 -48.65625 "/></g></g></g><g clip-path="url(#3390670a36)"><g fill="#171616" fill-opacity="1"><g transform="translate(200.286876, 83.175575)"><g><path d="M 16.832031 1.1875 L -3.988281 -51.90625 L 26.0625 -51.90625 L 36.925781 -17.457031 L 33.824219 -16.480469 L 33.824219 -19.730469 L 35.039062 -19.730469 L 35.039062 -16.480469 L 31.933594 -15.519531 L 29.023438 -24.914062 L 37.792969 -51.90625 L 67.726562 -51.90625 L 46.195312 3.253906 L 17.644531 3.253906 Z M 22.890625 -1.1875 L 19.859375 0 L 19.859375 -3.253906 L 43.972656 -3.253906 L 43.972656 0 L 40.941406 -1.183594 L 59.9375 -49.839844 L 62.964844 -48.65625 L 62.964844 -45.402344 L 40.15625 -45.402344 L 40.15625 -48.65625 L 43.25 -47.652344 L 35.53125 -23.886719 L 32.4375 -24.890625 L 35.542969 -25.851562 L 39.449219 -13.226562 L 31.441406 -13.226562 L 20.574219 -47.675781 L 23.675781 -48.65625 L 23.675781 -45.402344 L 0.78125 -45.402344 L 0.78125 -48.65625 L 3.808594 -49.84375 Z M 22.890625 -1.1875 "/></g></g></g></g><g fill="#fff9f9" fill-opacity="1"><g transform="translate(3.941101, 83.175575)"><g><path d="M 0.875 -48.65625 L 22.203125 -48.65625 L 22.203125 0 L 0.875 0 Z M 0.875 -48.65625 "/></g></g></g><g fill="#fff9f9" fill-opacity="1"><g transform="translate(27.009993, 83.175575)"><g><path d="M 22.125 0 L 0.78125 0 L 0.78125 -24.984375 C 0.78125 -29.253906 1.488281 -32.976562 2.90625 -36.15625 C 4.320312 -39.34375 6.226562 -41.988281 8.625 -44.09375 C 11.03125 -46.207031 13.71875 -47.785156 16.6875 -48.828125 C 19.664062 -49.867188 22.71875 -50.390625 25.84375 -50.390625 C 28.96875 -50.390625 32.03125 -49.867188 35.03125 -48.828125 C 38.039062 -47.785156 40.726562 -46.207031 43.09375 -44.09375 C 45.46875 -41.988281 47.363281 -39.34375 48.78125 -36.15625 C 50.195312 -32.976562 50.90625 -29.253906 50.90625 -24.984375 L 50.90625 0 L 29.578125 0 L 29.578125 -24.984375 C 29.578125 -26.253906 29.203125 -27.25 28.453125 -27.96875 C 27.703125 -28.695312 26.832031 -29.0625 25.84375 -29.0625 C 24.914062 -29.0625 24.0625 -28.695312 23.28125 -27.96875 C 22.507812 -27.25 22.125 -26.253906 22.125 -24.984375 Z M 22.125 0 "/></g></g></g><g fill="#fff9f9" fill-opacity="1"><g transform="translate(78.698187, 83.175575)"><g><path d="M 23.59375 0 C 19.132812 0 15.1875 -0.820312 11.75 -2.46875 C 8.3125 -4.113281 5.625 -6.582031 3.6875 -9.875 C 1.75 -13.175781 0.78125 -17.316406 0.78125 -22.296875 L 0.78125 -60.796875 L 22.125 -60.796875 L 22.125 -48.65625 L 36.953125 -48.65625 L 36.953125 -28.53125 L 22.125 -28.53125 L 22.125 -21.34375 C 22.125 -20.582031 22.5 -20.203125 23.25 -20.203125 L 36.953125 -20.203125 L 36.953125 0 Z M 23.59375 0 "/></g></g></g><g fill="#fff9f9" fill-opacity="1"><g transform="translate(116.597086, 83.175575)"><g><path d="M 28.453125 -21.9375 C 29.722656 -22.632812 30.472656 -23.601562 30.703125 -24.84375 C 30.929688 -26.09375 30.65625 -27.222656 29.875 -28.234375 C 29.09375 -29.242188 27.804688 -29.75 26.015625 -29.75 C 24.515625 -29.8125 23.375 -29.390625 22.59375 -28.484375 C 21.8125 -27.585938 21.40625 -26.546875 21.375 -25.359375 C 21.351562 -24.179688 21.703125 -23.128906 22.421875 -22.203125 C 23.140625 -21.273438 24.28125 -20.8125 25.84375 -20.8125 L 50.390625 -20.8125 L 50.390625 0 L 25.84375 0 C 22.375 0 19.132812 -0.648438 16.125 -1.953125 C 13.125 -3.253906 10.46875 -5.0625 8.15625 -7.375 C 5.84375 -9.6875 4.035156 -12.34375 2.734375 -15.34375 C 1.429688 -18.351562 0.78125 -21.59375 0.78125 -25.0625 C 0.78125 -29.632812 1.804688 -33.796875 3.859375 -37.546875 C 5.910156 -41.304688 8.828125 -44.328125 12.609375 -46.609375 C 16.398438 -48.898438 20.898438 -50.070312 26.109375 -50.125 C 28.828125 -50.125 31.554688 -49.863281 34.296875 -49.34375 C 37.046875 -48.832031 39.632812 -47.851562 42.0625 -46.40625 C 44.488281 -44.957031 46.515625 -42.816406 48.140625 -39.984375 C 48.828125 -38.765625 49.328125 -37.316406 49.640625 -35.640625 C 49.960938 -33.960938 50.082031 -32.242188 50 -30.484375 C 49.914062 -28.722656 49.554688 -27.078125 48.921875 -25.546875 C 48.285156 -24.015625 47.300781 -22.8125 45.96875 -21.9375 Z M 28.453125 -21.9375 "/></g></g></g><g fill="#fff9f9" fill-opacity="1"><g transform="translate(167.764931, 83.175575)"><g><path d="M 31.75 -48.65625 L 31.75 -28.28125 L 23.5 -28.28125 C 22.632812 -28.28125 22.203125 -27.84375 22.203125 -26.96875 L 22.203125 0 L 0.875 0 L 0.875 -26.109375 C 0.875 -30.671875 1.851562 -34.628906 3.8125 -37.984375 C 5.78125 -41.335938 8.515625 -43.953125 12.015625 -45.828125 C 15.515625 -47.710938 19.519531 -48.65625 24.03125 -48.65625 Z M 31.75 -48.65625 "/></g></g></g><g fill="#fff9f9" fill-opacity="1"><g transform="translate(200.286876, 83.175575)"><g><path d="M 19.859375 0 L 0.78125 -48.65625 L 23.671875 -48.65625 L 33.828125 -16.484375 L 35.046875 -16.484375 L 32.4375 -24.890625 L 40.15625 -48.65625 L 62.96875 -48.65625 L 43.96875 0 Z M 19.859375 0 "/></g></g></g></g></g><g transform="matrix(1, 0, 0, 1, 273, 113)"><g clip-path="url(#4927b6728a)"><g fill="#fff9f9" fill-opacity="1"><g transform="translate(0.788697, 124.885828)"><g><path d="M 54.609375 -91.453125 L 88.84375 -91.453125 L 88.84375 -42.59375 C 88.84375 -35.019531 87.601562 -28.421875 85.125 -22.796875 C 82.644531 -17.179688 79.332031 -12.476562 75.1875 -8.6875 C 71.050781 -4.894531 66.390625 -2.0625 61.203125 -0.1875 C 56.023438 1.675781 50.691406 2.609375 45.203125 2.609375 C 39.710938 2.609375 34.375 1.675781 29.1875 -0.1875 C 24.007812 -2.0625 19.351562 -4.894531 15.21875 -8.6875 C 11.082031 -12.476562 7.769531 -17.179688 5.28125 -22.796875 C 2.800781 -28.421875 1.5625 -35.019531 1.5625 -42.59375 L 1.5625 -91.453125 L 35.53125 -91.453125 L 35.53125 -42.59375 C 35.53125 -38.9375 36.53125 -36.191406 38.53125 -34.359375 C 40.539062 -32.535156 42.722656 -31.625 45.078125 -31.625 C 47.515625 -31.625 49.710938 -32.535156 51.671875 -34.359375 C 53.628906 -36.191406 54.609375 -38.9375 54.609375 -42.59375 Z M 54.609375 -91.453125 "/></g></g></g></g></g></svg>