<svg width="301" height="374" viewBox="0 0 301 374" fill="none" xmlns="http://www.w3.org/2000/svg">
<g clip-path="url(#clip0_62_731)">
<path d="M126.71 139.63C126.71 139.63 100.71 36.21 88.26 19.97H108.4L102.34 7.52L148.9 21.05V139.63H126.72H126.71Z" fill="black"/>
<path d="M171.07 139.63C171.07 139.63 197.07 36.21 209.52 19.97H189.38L195.44 7.52L148.88 21.05V139.63H171.06H171.07Z" fill="black"/>
<path d="M12.72 96.84L32.57 89.8C32.57 89.8 -11.28 -59.61 72.63 27.01C72.63 27.01 90.49 36.21 87.79 28.09L85.08 19.97C85.08 19.97 146.97 45.41 129.29 127.16C111.61 208.9 12.71 96.84 12.71 96.84" fill="#444444"/>
<path d="M283.71 96.84L263.86 89.8C263.86 89.8 307.71 -59.61 223.8 27C223.8 27 205.94 36.2 208.64 28.08L211.35 19.96C211.35 19.96 149.46 45.4 167.14 127.15C184.82 208.9 283.72 96.83 283.72 96.83" fill="#444444"/>
<path d="M3.45001 175.88C3.45001 175.88 27.3 199.04 67.15 215.65C120.5 237.89 202.51 248.39 294.34 175.88" fill="white"/>
<path d="M295.96 178.05H199.91C145.36 73.57 101.13 178.05 101.13 178.05H1.82001" fill="white"/>
<path d="M0 165.42C0 165.42 44.56 97.39 14.07 96.85L57.74 89.27L52.33 78.44L75.07 85.48L70.2 72.49L94.02 80.61L89.69 67.62C89.69 67.62 149.42 94.15 130.65 133.67C130.65 133.67 74.89 67.26 0 165.43" fill="white"/>
<path d="M297.78 165.42C297.78 165.42 253.22 97.39 283.71 96.85L240.04 89.27L245.45 78.44L222.71 85.48L227.58 72.49L203.76 80.61L208.09 67.62C208.09 67.62 148.36 94.15 167.13 133.67C167.13 133.67 222.89 67.26 297.78 165.43" fill="white"/>
<path d="M132.47 136.9C132.47 136.9 91.69 74.82 28.53 133.29L1.82001 165.42C1.82001 165.42 19.87 167.95 22.75 165.42C25.64 162.89 7.95001 171.19 5.07001 175.89C5.07001 175.89 51.27 222.45 111.54 167.23C111.54 167.23 120.92 143.77 132.47 136.91V136.9Z" fill="black" stroke="black" stroke-miterlimit="10"/>
<path d="M168.56 136.9C168.56 136.9 209.34 74.82 272.5 133.29L299.21 165.41C299.21 165.41 281.16 167.94 278.28 165.41C275.4 162.88 293.08 171.18 295.96 175.88C295.96 175.88 249.76 222.44 189.49 167.22C189.49 167.22 180.11 143.76 168.56 136.9Z" fill="black" stroke="black" stroke-miterlimit="10"/>
<path d="M88.4904 163.234C98.0632 160.044 103.563 150.675 100.775 142.307C97.9861 133.94 87.9655 129.742 78.3928 132.932C68.82 136.122 63.3203 145.492 66.1087 153.859C68.8971 162.227 78.9177 166.424 88.4904 163.234Z" fill="white"/>
<path d="M235.436 153.835C238.225 145.467 232.725 136.098 223.152 132.908C213.579 129.718 203.559 133.915 200.77 142.283C197.982 150.651 203.482 160.02 213.054 163.21C222.627 166.4 232.648 162.203 235.436 153.835Z" fill="white"/>
<path d="M150.79 182.4C164.476 182.4 175.57 174.292 175.57 164.29C175.57 154.288 164.476 146.18 150.79 146.18C137.104 146.18 126.01 154.288 126.01 164.29C126.01 174.292 137.104 182.4 150.79 182.4Z" fill="black"/>
<path d="M150.79 182.4C150.79 182.4 152.68 202.95 118.58 202.95" stroke="black" stroke-miterlimit="10"/>
<path d="M150.08 182.4C150.08 182.4 148.11 202.95 183.54 202.95" stroke="black" stroke-miterlimit="10"/>
<path d="M43.06 60.03C9.77 -30.11 65.4 34.86 65.4 34.86L43.06 60.03Z" fill="#FFBBBC"/>
<path d="M256.22 60.03C289.51 -30.11 233.88 34.86 233.88 34.86L256.22 60.03Z" fill="#FFBBBC"/>
</g>
<defs>
<clipPath id="clip0_62_731">
<rect width="300.17" height="373.48" fill="white"/>
</clipPath>
</defs>
</svg>
