<?xml version="1.0" encoding="UTF-8"?>
<svg xmlns="http://www.w3.org/2000/svg" viewBox="0 0 400.23 828.27">
  <defs>
    <style>
      .cls-1, .cls-2, .cls-3 {
        stroke: #000;
        stroke-miterlimit: 10;
      }

      .cls-1, .cls-4 {
        fill: none;
      }

      .cls-2, .cls-5 {
        fill: #ffbbbc;
      }

      .cls-6, .cls-7 {
        fill: #fff;
      }

      .cls-8 {
        fill: #ffdfbf;
      }

      .cls-9 {
        fill: #444;
      }

      .cls-7 {
        opacity: .8;
      }

      .cls-10 {
        fill: #cc0005;
      }

      .cls-11 {
        fill: #ffd7aa;
      }
    </style>
  </defs>
  <g id="Layer_15" data-name="Layer 15">
    <path class="cls-9" d="M252.39,421.4s-33.58,25.49-102.6,1.41-71.46,269.31-71.46,269.31c0,0,117.74,168.09,244.42,0,0,0,3.05-279.97-70.36-270.72Z"/>
  </g>
  <g id="Layer_20" data-name="Layer 20">
    <path class="cls-9" d="M148.2,822.32c-.81-.27-8.66-5.68-8.66-5.68l-10.83,9.74-5.68-8.12-8.12,8.12-5.41-4.87-8.66,2.71-1.35-7.58s-26.54-121.54-20.17-143.46,95.42,69.57,95.42,69.57c0,0-10.56,69.83-24.36,79.58"/>
    <path class="cls-9" d="M252.89,824.21c.81-.27,8.66-5.68,8.66-5.68l10.83,9.74,5.68-8.12,8.12,8.12,5.41-4.87,8.66,2.71,1.35-7.58s26.54-121.54,20.17-143.46c-6.37-21.92-95.42,69.57-95.42,69.57,0,0,10.56,69.83,24.36,79.58"/>
  </g>
  <g id="Layer_21" data-name="Layer 21">
    <ellipse class="cls-7" cx="202.38" cy="570.14" rx="85.39" ry="120.08"/>
  </g>
  <g id="Layer_14" data-name="Layer 14">
    <polygon class="cls-10" points="178.33 462.32 201.21 483.43 220.88 462.32 178.33 462.32"/>
    <polyline class="cls-10" points="203.13 603.61 178.33 569.5 201.21 483.43 227.88 569.5"/>
  </g>
  <g id="Layer_8" data-name="Layer 8">
    <path d="M179.03,369.77s-26-103.42-38.45-119.66h20.14l-6.06-12.45,46.56,13.53v118.58h-22.18Z"/>
    <path d="M223.39,369.77s26-103.42,38.45-119.66h-20.14s6.06-12.45,6.06-12.45l-46.56,13.53v118.58s22.18,0,22.18,0Z"/>
  </g>
  <g id="Layer_6" data-name="Layer 6">
    <path class="cls-9" d="M65.04,326.98l19.85-7.04s-43.85-149.41,40.06-62.8c0,0,17.86,9.2,15.16,1.08l-2.71-8.12s61.89,25.44,44.21,107.19c-17.68,81.74-116.58-30.32-116.58-30.32"/>
    <path class="cls-9" d="M336.03,326.98l-19.85-7.04s43.85-149.41-40.06-62.8c0,0-17.86,9.2-15.16,1.08l2.71-8.12s-61.89,25.44-44.21,107.19,116.58-30.32,116.58-30.32"/>
  </g>
  <g id="Layer_4" data-name="Layer 4">
    <path class="cls-6" d="M55.77,406.02s23.85,23.16,63.7,39.77c53.35,22.24,135.36,32.74,227.19-39.77"/>
    <path class="cls-6" d="M348.28,408.18h-96.05c-54.55-104.48-98.78,0-98.78,0H54.14"/>
  </g>
  <g id="Layer_5" data-name="Layer 5">
    <path class="cls-4" d="M54.14,395.55s33.38-57.74,27.43-59.91"/>
    <path class="cls-6" d="M52.32,395.55s44.56-68.03,14.07-68.57l43.67-7.58-5.41-10.83,22.74,7.04-4.87-12.99,23.82,8.12-4.33-12.99s59.73,26.53,40.96,66.05c0,0-55.76-66.41-130.65,31.76"/>
    <path class="cls-6" d="M350.1,395.55s-44.56-68.03-14.07-68.57l-43.67-7.58,5.41-10.83-22.74,7.04,4.87-12.99-23.82,8.12,4.33-12.99s-59.73,26.53-40.96,66.05c0,0,55.76-66.41,130.65,31.76"/>
  </g>
  <g id="Layer_3" data-name="Layer 3">
    <path class="cls-3" d="M184.79,367.04s-40.78-62.08-103.94-3.61l-26.71,32.12s18.05,2.53,20.93,0c2.89-2.53-14.8,5.77-17.68,10.47,0,0,46.2,46.56,106.47-8.66,0,0,9.38-23.46,20.93-30.32Z"/>
    <path class="cls-3" d="M220.88,367.04s40.78-62.08,103.94-3.61l26.71,32.12s-18.05,2.53-20.93,0,14.8,5.77,17.68,10.47c0,0-46.2,46.56-106.47-8.66,0,0-9.38-23.46-20.93-30.32Z"/>
  </g>
  <g id="Layer_9" data-name="Layer 9">
    <ellipse class="cls-6" cx="135.77" cy="378.21" rx="18.27" ry="15.97" transform="translate(-112.63 62.34) rotate(-18.43)"/>
    <ellipse class="cls-6" cx="270.44" cy="378.21" rx="15.97" ry="18.27" transform="translate(-173.87 515.17) rotate(-71.57)"/>
  </g>
  <g id="Layer_11" data-name="Layer 11">
    <ellipse cx="203.11" cy="394.42" rx="24.78" ry="18.11"/>
    <path class="cls-1" d="M203.11,412.53s1.89,20.55-32.21,20.55"/>
    <path class="cls-1" d="M202.4,412.53s-1.97,20.55,33.46,20.55"/>
  </g>
  <g id="Layer_13" data-name="Layer 13">
    <path class="cls-5" d="M95.38,290.17c-33.29-90.14,22.34-25.17,22.34-25.17l-22.34,25.17Z"/>
    <path class="cls-5" d="M308.54,290.17c33.29-90.14-22.34-25.17-22.34-25.17l22.34,25.17Z"/>
  </g>
  <g id="Layer_16" data-name="Layer 16">
    <path class="cls-9" d="M128.01,351.06s-57.56-100.97-69.3-104.16l-1.41-28.41-9.49,6.13s-15.06-27.59-21.97-25.01l6.16,19.13-25.8-10.09,16.51,20.09L0,226.82l23.74,28.09s1.04,39.94,29.46,120.92c28.41,80.98,98.31,15.09,74.81-24.77Z"/>
    <path class="cls-9" d="M272.22,352.83s57.56-100.97,69.3-104.16l1.41-28.41,9.49,6.13s15.06-27.59,21.97-25.01l-6.16,19.13,25.8-10.09-16.51,20.09,22.72-1.91-23.74,28.09s-1.04,39.94-29.46,120.92c-.69,1.98-1.41,3.87-2.16,5.68-29.62,72.09-95.58,8.43-72.66-30.45Z"/>
    <path class="cls-9" d="M267.47,361.99s-33.37,243.79,77.4,21.29"/>
    <path class="cls-9" d="M133.17,366.89s33.37,243.79-77.4,21.29"/>
    <path d="M179.49,370.19s-26-103.42-38.45-119.66h20.14l-6.06-12.45,46.56,13.53v118.58h-22.18Z"/>
    <path d="M223.85,370.19s26-103.42,38.45-119.66h-20.14s6.06-12.45,6.06-12.45l-46.56,13.53v118.58s22.18,0,22.18,0Z"/>
    <path class="cls-9" d="M65.49,327.4l19.85-7.04s-43.85-149.41,40.06-62.8c0,0,17.86,9.2,15.16,1.08l-2.71-8.12s61.89,25.44,44.21,107.19c-17.68,81.74-116.58-30.32-116.58-30.32"/>
    <path class="cls-9" d="M336.49,327.4l-19.85-7.04s43.85-149.41-40.06-62.8c0,0-17.86,9.2-15.16,1.08l2.71-8.12s-61.89,25.44-44.21,107.19c17.68,81.74,116.58-30.32,116.58-30.32"/>
    <path class="cls-6" d="M56.22,406.44s23.85,23.16,63.7,39.77c53.35,22.24,135.36,32.74,227.19-39.77"/>
    <path class="cls-6" d="M348.74,406.44h-96.05c-54.55-99.61-98.78,0-98.78,0H54.6"/>
    <path class="cls-4" d="M54.6,395.97s33.38-57.74,27.43-59.91"/>
    <path class="cls-6" d="M52.78,395.97s44.56-68.03,14.07-68.57l43.67-7.58-5.41-10.83,22.74,7.04-4.87-12.99,23.82,8.12-4.33-12.99s59.73,26.53,40.96,66.05c0,0-55.76-66.41-130.65,31.76"/>
    <path class="cls-6" d="M350.56,395.97s-44.56-68.03-14.07-68.57l-43.67-7.58,5.41-10.83-22.74,7.04,4.87-12.99-23.82,8.12,4.33-12.99s-59.73,26.53-40.96,66.05c0,0,55.76-66.41,130.65,31.76"/>
    <path class="cls-3" d="M185.25,367.46s-40.78-62.08-103.94-3.61l-26.71,32.12s18.05,2.53,20.93,0-14.8,5.77-17.68,10.47c0,0,46.2,46.56,106.47-8.66,0,0,9.38-23.46,20.93-30.32Z"/>
    <path class="cls-3" d="M221.34,367.46s40.78-62.08,103.94-3.61l26.71,32.12s-18.05,2.53-20.93,0,14.8,5.77,17.68,10.47c0,0-46.2,46.56-106.47-8.66,0,0-9.38-23.46-20.93-30.32Z"/>
    <ellipse cx="203.56" cy="394.85" rx="24.78" ry="18.11"/>
    <path class="cls-2" d="M238.08,433.5c-35.43,0-33.46-20.55-33.46-20.55h-1.05s1.89,20.55-32.21,20.55l11.4-.92s19.06,49.96,41.72,0"/>
    <path class="cls-5" d="M95.83,290.59c-33.29-90.14,22.34-25.17,22.34-25.17l-22.34,25.17Z"/>
    <path class="cls-5" d="M309,290.59c33.29-90.14-22.34-25.17-22.34-25.17l22.34,25.17Z"/>
    <path class="cls-6" d="M156.83,373.73c-23.16-29.52-44.78.61-44.78.61,0,0,1.58,12.22,10.04-.53,8.46-12.75,22.99-5.67,24.64.26,1.65,5.93,12.55,2.79,10.1-.34Z"/>
    <path class="cls-6" d="M250.3,373.73c23.16-29.52,44.78.61,44.78.61,0,0-1.58,12.22-10.04-.53-8.46-12.75-22.99-5.67-24.64.26-1.65,5.93-12.55,2.79-10.1-.34Z"/>
    <polygon class="cls-8" points="23.65 21.65 31.77 242.77 367.95 242.77 378.23 21.65 23.65 21.65"/>
    <path class="cls-9" d="M369.88,201.21l-28.46,8.27,30.94,18.02,5.15,3,22.72-1.91s-6.12-41.28-51.95-38.04"/>
    <polyline class="cls-9" points="346.66 237.65 367.95 242.77 372.36 227.5"/>
    <path class="cls-9" d="M28.11,211.17l29.2,7.31-34.59,10.25,33.51,6.41-3.9,7.21L0,226.82s-.52-44.49,56.22-27.38"/>
    <path class="cls-9" d="M31.77,242.77l24.46-7.63-24.46,7.63Z"/>
    <path class="cls-11" d="M44,14.08h244.5s3.7-14.08,15.32-14.08h41.06s12.79,6.5,10.62,14.08h15.33v7.58H31.77l12.23-7.58Z"/>
    <polyline class="cls-9" points="56.22 235.14 44 254.62 17.69 238.95"/>
  </g>
</svg>