<svg width="290" height="366" viewBox="0 0 290 366" fill="none" xmlns="http://www.w3.org/2000/svg">
<g clip-path="url(#clip0_62_765)">
<path d="M122.695 135.3C122.695 135.3 97.5343 35.2186 85.4863 19.5028H104.976L99.1116 7.45473L144.168 20.548V135.3H122.704H122.695Z" fill="black"/>
<path d="M165.622 135.3C165.622 135.3 190.782 35.2186 202.83 19.5028H183.341L189.205 7.45473L144.149 20.548V135.3H165.612H165.622Z" fill="black"/>
<path d="M12.376 93.8915L31.585 87.0787C31.585 87.0787 -10.849 -57.5084 70.3513 26.3059C70.3513 26.3059 87.6345 35.2089 85.0217 27.351L82.3992 19.4932C82.3992 19.4932 142.291 44.112 125.182 123.223C108.073 202.325 12.3663 93.8818 12.3663 93.8818" fill="#444444"/>
<path d="M274.624 93.8915L255.415 87.0788C255.415 87.0788 297.849 -57.5084 216.649 26.3059C216.649 26.3059 199.366 35.2089 201.979 27.351L204.601 19.4932C204.601 19.4932 144.71 44.112 161.819 123.223C178.928 202.334 274.634 93.8818 274.634 93.8818" fill="#444444"/>
<path d="M3.41516 170.38C3.41516 170.38 26.495 192.793 65.0581 208.866C116.685 230.388 196.047 240.55 284.911 170.38" fill="white"/>
<path d="M286.479 170.38H193.531C140.742 73.9855 97.9407 170.38 97.9407 170.38H1.84741" fill="white"/>
<path d="M0.0765381 160.248C0.0765381 160.248 43.1975 94.4141 13.6922 93.8915L55.9519 86.5562L50.7166 76.0758L72.7223 82.8885L68.0095 70.3178L91.0603 78.1757L86.8701 65.605C86.8701 65.605 144.671 91.2787 126.507 129.523C126.507 129.523 72.5481 65.2567 0.0765381 160.258" fill="white"/>
<path d="M288.24 160.248C288.24 160.248 245.119 94.4141 274.625 93.8915L232.365 86.5562L237.6 76.0758L215.594 82.8885L220.307 70.3178L197.256 78.1757L201.447 65.605C201.447 65.605 143.645 91.2786 161.809 129.523C161.809 129.523 215.769 65.2567 288.24 160.258" fill="white"/>
<path d="M128.269 132.658C128.269 132.658 88.8055 72.5823 27.6852 129.165L1.83777 160.248C1.83777 160.248 19.3049 162.696 22.0919 160.248C24.8789 157.8 7.76981 165.832 4.98281 170.38C4.98281 170.38 49.6909 215.437 108.015 162C108.015 162 117.092 139.297 128.269 132.658Z" fill="black" stroke="black" stroke-miterlimit="10"/>
<path d="M163.193 132.658C163.193 132.658 202.656 72.5823 263.777 129.165L289.624 160.248C289.624 160.248 272.157 162.696 269.37 160.248C266.583 157.8 283.692 165.832 286.479 170.38C286.479 170.38 241.771 215.437 183.447 162C183.447 162 174.37 139.297 163.193 132.658Z" fill="black" stroke="black" stroke-miterlimit="10"/>
<path d="M85.7006 158.155C94.9642 155.068 99.6686 144.148 96.2082 133.763C92.7478 123.379 82.433 117.463 73.1694 120.55C63.9058 123.637 59.2014 134.558 62.6618 144.942C66.1222 155.327 76.437 161.242 85.7006 158.155Z" fill="white"/>
<path d="M229.386 144.581C232.902 134.03 228.243 122.973 218.98 119.886C209.716 116.799 199.356 122.85 195.84 133.402C192.324 143.954 196.983 155.01 206.246 158.097C215.51 161.184 225.87 155.133 229.386 144.581Z" fill="white"/>
<path d="M145.987 176.69C159.231 176.69 169.967 168.843 169.967 159.164C169.967 149.485 159.231 141.639 145.987 141.639C132.744 141.639 122.008 149.485 122.008 159.164C122.008 168.843 132.744 176.69 145.987 176.69Z" fill="black"/>
<path d="M145.987 221.36C154.667 221.36 161.703 211.888 161.703 200.205C161.703 188.522 154.667 179.051 145.987 179.051C137.308 179.051 130.272 188.522 130.272 200.205C130.272 211.888 137.308 221.36 145.987 221.36Z" fill="#FFBBBC"/>
<path d="M145.987 179.051V176.68" stroke="black" stroke-miterlimit="10"/>
<path d="M41.7459 58.2697C9.53099 -28.9606 63.3645 33.9122 63.3645 33.9122L41.7459 58.2697Z" fill="#FFBBBC"/>
<path d="M248.022 58.2697C280.237 -28.9606 226.404 33.9122 226.404 33.9122L248.022 58.2697Z" fill="#FFBBBC"/>
</g>
<defs>
<clipPath id="clip0_62_765">
<rect width="290" height="366" fill="white"/>
</clipPath>
</defs>
</svg>
