<svg width="301" height="376" viewBox="0 0 301 376" fill="none" xmlns="http://www.w3.org/2000/svg">
<g clip-path="url(#clip0_62_702)">
<path d="M126.71 141.53C126.71 141.53 100.71 38.11 88.26 21.87H108.4L102.34 9.42L148.9 22.95V141.53H126.72H126.71Z" fill="black"/>
<path d="M171.07 141.53C171.07 141.53 197.07 38.11 209.52 21.87H189.38L195.44 9.42L148.88 22.95V141.53H171.06H171.07Z" fill="black"/>
<path d="M15.05 98.53L34.28 89.93C34.28 89.93 -21.36 -55.5 69.2 24.14C69.2 24.14 87.74 31.89 84.4 24.01L81.05 16.13C81.05 16.13 144.78 36.55 133.67 119.45C122.57 202.34 15.05 98.53 15.05 98.53Z" fill="#444444"/>
<path d="M282.89 98.13L263.6 89.66C263.6 89.66 318.24 -56.16 228.23 24.11C228.23 24.11 209.74 31.98 213.03 24.08L216.32 16.18C216.32 16.18 152.73 37.04 164.41 119.86C176.08 202.68 282.89 98.13 282.89 98.13Z" fill="#444444"/>
<path d="M42.35 59.42C1.96998 -27.77 62.61 32.54 62.61 32.54L42.35 59.42Z" fill="#FFBBBC"/>
<path d="M258.16 59.41C297.94 -28.06 237.72 32.67 237.72 32.67L258.16 59.41Z" fill="#FFBBBC"/>
<path d="M3.45001 177.78C3.45001 177.78 27.3 200.94 67.15 217.55C120.5 239.79 202.51 250.29 294.34 177.78" fill="white"/>
<path d="M295.96 179.95H199.91C145.36 75.47 101.13 179.95 101.13 179.95H1.82001" fill="white"/>
<path d="M0 167.31C0 167.31 44.56 99.28 14.07 98.74L57.74 91.16L52.33 80.33L75.07 87.37L70.2 74.38L94.02 82.5L89.69 69.51C89.69 69.51 149.42 96.04 130.65 135.56C130.65 135.56 74.89 69.15 0 167.32" fill="white"/>
<path d="M297.78 167.31C297.78 167.31 253.22 99.28 283.71 98.74L240.04 91.16L245.45 80.33L222.71 87.37L227.58 74.38L203.76 82.5L208.09 69.51C208.09 69.51 148.36 96.04 167.13 135.56C167.13 135.56 222.89 69.15 297.78 167.32" fill="white"/>
<path d="M132.47 138.8C132.47 138.8 91.69 76.72 28.53 135.19L1.82001 167.31C1.82001 167.31 19.87 169.84 22.75 167.31C25.64 164.78 7.95001 173.08 5.07001 177.78C5.07001 177.78 51.27 224.34 111.54 169.12C111.54 169.12 120.92 145.66 132.47 138.8Z" fill="black" stroke="black" stroke-miterlimit="10"/>
<path d="M168.56 138.8C168.56 138.8 209.34 76.72 272.5 135.19L299.21 167.31C299.21 167.31 281.16 169.84 278.28 167.31C275.4 164.78 293.08 173.08 295.96 177.78C295.96 177.78 249.76 224.34 189.49 169.12C189.49 169.12 180.11 145.66 168.56 138.8Z" fill="black" stroke="black" stroke-miterlimit="10"/>
<path d="M88.4911 165.137C98.0638 161.947 103.564 152.577 100.775 144.21C97.9868 135.842 87.9661 131.645 78.3934 134.835C68.8207 138.025 63.3209 147.394 66.1093 155.762C68.8977 164.129 78.9184 168.327 88.4911 165.137Z" fill="white"/>
<path d="M235.439 155.736C238.227 147.368 232.727 137.999 223.155 134.809C213.582 131.619 203.561 135.816 200.773 144.184C197.985 152.551 203.484 161.921 213.057 165.111C222.63 168.301 232.65 164.103 235.439 155.736Z" fill="white"/>
<path d="M184.15 196.13C148.72 196.13 150.69 175.58 150.69 175.58H149.64C149.64 175.58 151.53 196.13 117.43 196.13L128.83 195.21C128.83 195.21 147.89 245.17 170.55 195.21" fill="#FFBBBC"/>
<path d="M184.15 196.13C148.72 196.13 150.69 175.58 150.69 175.58H149.64C149.64 175.58 151.53 196.13 117.43 196.13L128.83 195.21C128.83 195.21 147.89 245.17 170.55 195.21" stroke="black" stroke-miterlimit="10"/>
<path d="M150.79 184.3C164.476 184.3 175.57 176.192 175.57 166.19C175.57 156.188 164.476 148.08 150.79 148.08C137.104 148.08 126.01 156.188 126.01 166.19C126.01 176.192 137.104 184.3 150.79 184.3Z" fill="black"/>
</g>
<defs>
<clipPath id="clip0_62_702">
<rect width="300.17" height="375.37" fill="white"/>
</clipPath>
</defs>
</svg>
