<svg width="292" height="375" viewBox="0 0 292 375" fill="none" xmlns="http://www.w3.org/2000/svg">
<g clip-path="url(#clip0_15_17)">
<path d="M123.927 144.329C123.927 144.329 98.5279 43.354 86.3658 27.4979H106.04L100.12 15.3422L145.603 28.5524V144.329H123.936H123.927Z" fill="black"/>
<path d="M167.26 144.329C167.26 144.329 192.659 43.354 204.821 27.4979H185.147L191.067 15.3422L145.584 28.5524V144.329H167.251H167.26Z" fill="black"/>
<path d="M12.5634 102.551L31.9542 95.6771C31.9542 95.6771 -10.8815 -50.2008 71.0877 34.3617C71.0877 34.3617 88.5346 43.3442 85.897 35.4162L83.2497 27.4881C83.2497 27.4881 143.708 52.3267 126.437 132.144C109.166 211.962 12.5536 102.541 12.5536 102.541" fill="#444444"/>
<path d="M277.295 102.551L257.904 95.6771C257.904 95.6771 300.74 -50.2008 218.771 34.3617C218.771 34.3617 201.324 43.3442 203.962 35.4162L206.609 27.4881C206.609 27.4881 146.15 52.3267 163.421 132.144C180.693 211.962 277.305 102.541 277.305 102.541" fill="#444444"/>
<path d="M3.51746 179.722C3.51746 179.722 26.8158 202.335 65.7441 218.552C117.86 240.266 197.973 250.518 287.679 179.722" fill="white"/>
<path d="M289.262 179.722H195.433C142.145 82.467 98.9382 179.722 98.9382 179.722H1.93494" fill="white"/>
<path d="M0.147339 169.509C0.147339 169.509 43.6767 103.088 13.8919 102.56L56.5518 95.1597L51.267 84.5857L73.481 91.4593L68.7236 78.7763L91.9927 86.7044L87.7628 74.0215C87.7628 74.0215 146.111 99.9243 127.775 138.51C127.775 138.51 73.3052 73.67 0.147339 169.519" fill="white"/>
<path d="M291.04 169.509C291.04 169.509 247.51 103.088 277.295 102.56L234.635 95.1597L239.92 84.5857L217.706 91.4593L222.464 78.7763L199.194 86.7044L203.424 74.0215C203.424 74.0215 145.076 99.9243 163.412 138.51C163.412 138.51 217.882 73.67 291.04 169.519" fill="white"/>
<path d="M129.553 141.664C129.553 141.664 89.7165 81.0513 28.0174 138.139L1.92517 169.5C1.92517 169.5 19.5577 171.97 22.3711 169.5C25.1845 167.03 7.91339 175.133 5.1 179.722C5.1 179.722 50.2314 225.182 109.107 171.267C109.107 171.267 118.27 148.362 129.553 141.664Z" fill="black" stroke="black" stroke-miterlimit="10"/>
<path d="M164.809 141.664C164.809 141.664 204.645 81.0513 266.344 138.139L292.437 169.5C292.437 169.5 274.804 171.97 271.991 169.5C269.177 167.03 286.448 175.133 289.262 179.722C289.262 179.722 244.13 225.182 185.254 171.267C185.254 171.267 176.091 148.362 164.809 141.664Z" fill="black" stroke="black" stroke-miterlimit="10"/>
<path d="M147.44 186.088C160.809 186.088 171.647 178.172 171.647 168.406C171.647 158.641 160.809 150.724 147.44 150.724C134.071 150.724 123.233 158.641 123.233 168.406C123.233 178.172 134.071 186.088 147.44 186.088Z" fill="black"/>
<path d="M181.161 206.152C146.551 206.152 148.475 186.088 148.475 186.088H147.45C147.45 186.088 149.296 206.152 115.985 206.152L127.121 205.254C127.121 205.254 145.74 254.033 167.876 205.254" fill="#FFBBBC"/>
<path d="M181.161 206.152C146.551 206.152 148.475 186.088 148.475 186.088H147.45C147.45 186.088 149.296 206.152 115.985 206.152L127.121 205.254C127.121 205.254 145.74 254.033 167.876 205.254" stroke="black" stroke-miterlimit="10"/>
<path d="M42.2113 66.6109C9.69126 -21.3982 64.0346 42.0359 64.0346 42.0359L42.2113 66.6109Z" fill="#FFBBBC"/>
<path d="M250.441 66.6109C282.961 -21.3982 228.618 42.0359 228.618 42.0359L250.441 66.6109Z" fill="#FFBBBC"/>
<path d="M101.791 147.785C79.1663 118.963 58.0464 148.381 58.0464 148.381C58.0464 148.381 59.5899 160.312 67.8542 147.864C76.1185 135.415 90.3124 142.328 91.9243 148.117C93.5361 153.907 104.184 150.841 101.791 147.785Z" fill="white"/>
<path d="M193.099 147.785C215.723 118.963 236.843 148.381 236.843 148.381C236.843 148.381 235.3 160.312 227.035 147.864C218.771 135.415 204.577 142.328 202.965 148.117C201.353 153.907 190.705 150.841 193.099 147.785Z" fill="white"/>
</g>
<defs>
<clipPath id="clip0_15_17">
<rect width="292" height="375" fill="white"/>
</clipPath>
</defs>
</svg>
