<svg width="446" height="410" viewBox="0 0 446 410" fill="none" xmlns="http://www.w3.org/2000/svg">
<g clip-path="url(#clip0_72_4)">
<path d="M305.71 191.27C305.71 191.27 272.13 216.76 203.11 192.68C134.09 168.6 131.65 461.99 131.65 461.99C131.65 461.99 249.39 630.08 376.07 461.99C376.07 461.99 379.12 182.02 305.71 191.27Z" fill="#444444"/>
<path d="M170.83 203.86C170.83 203.86 75.78 136.98 63.8 139.09L50.44 113.98L44.46 123.57C44.46 123.57 19.09 105.01 13.94 110.29L27.65 124.98L0.0100098 126.83L23.5 137.98L2.13001 145.92L35.57 161.23C35.57 161.23 53.51 196.93 113.68 258.12C173.85 319.31 209.06 229.94 170.84 203.87L170.83 203.86Z" fill="#444444"/>
<path d="M370.61 231.06C370.61 231.06 425.84 333.32 422.34 344.97L445.71 361.19L435.49 366C435.49 366 450.93 393.38 445.09 397.87L432.12 382.52L427.03 409.75L418.72 385.11L408.32 405.4L397.05 370.39C397.05 370.39 363.71 348.37 310.02 281.42C256.33 214.47 349.23 190.02 370.62 231.04L370.61 231.06Z" fill="#444444"/>
<path opacity="0.8" d="M255.7 460.09C302.86 460.09 341.09 406.328 341.09 340.01C341.09 273.692 302.86 219.93 255.7 219.93C208.54 219.93 170.31 273.692 170.31 340.01C170.31 406.328 208.54 460.09 255.7 460.09Z" fill="white"/>
<path d="M231.65 232.18L254.53 253.3L274.2 232.18H231.65Z" fill="#CC0005"/>
<path d="M256.44 373.48L231.65 339.37L254.53 253.3L281.2 339.37" fill="#CC0005"/>
<path d="M232.35 139.63C232.35 139.63 206.35 36.21 193.9 19.97H214.04L207.98 7.52002L254.54 21.05V139.63H232.36H232.35Z" fill="black"/>
<path d="M276.71 139.63C276.71 139.63 302.71 36.21 315.16 19.97H295.02L301.08 7.52002L254.52 21.05V139.63H276.7H276.71Z" fill="black"/>
<path d="M118.35 96.84L138.2 89.8C138.2 89.8 94.35 -59.61 178.26 27C178.26 27 196.12 36.2 193.42 28.08L190.71 19.96C190.71 19.96 252.6 45.4 234.92 127.15C217.24 208.89 118.34 96.83 118.34 96.83" fill="#444444"/>
<path d="M389.35 96.84L369.5 89.8C369.5 89.8 413.35 -59.61 329.44 27C329.44 27 311.58 36.2 314.28 28.08L316.99 19.96C316.99 19.96 255.1 45.4 272.78 127.15C290.46 208.9 389.36 96.83 389.36 96.83" fill="#444444"/>
<path d="M109.09 175.88C109.09 175.88 132.94 199.04 172.79 215.65C226.14 237.89 308.15 248.39 399.98 175.88" fill="white"/>
<path d="M401.6 178.05H305.55C251 73.57 206.77 178.05 206.77 178.05H107.47" fill="white"/>
<path d="M105.64 165.42C105.64 165.42 150.2 97.39 119.71 96.85L163.38 89.27L157.97 78.44L180.71 85.48L175.84 72.49L199.66 80.61L195.33 67.62C195.33 67.62 255.06 94.15 236.29 133.67C236.29 133.67 180.53 67.26 105.64 165.43" fill="white"/>
<path d="M403.42 165.42C403.42 165.42 358.86 97.39 389.35 96.85L345.68 89.27L351.09 78.44L328.35 85.48L333.22 72.49L309.4 80.61L313.73 67.62C313.73 67.62 254 94.15 272.77 133.67C272.77 133.67 328.53 67.26 403.42 165.43" fill="white"/>
<path d="M238.11 136.9C238.11 136.9 197.33 74.82 134.17 133.29L107.46 165.41C107.46 165.41 125.51 167.94 128.39 165.41C131.28 162.88 113.59 171.18 110.71 175.88C110.71 175.88 156.91 222.44 217.18 167.22C217.18 167.22 226.56 143.76 238.11 136.9Z" fill="black" stroke="black" stroke-miterlimit="10"/>
<path d="M274.2 136.9C274.2 136.9 314.98 74.82 378.14 133.29L404.85 165.41C404.85 165.41 386.8 167.94 383.92 165.41C381.04 162.88 398.72 171.18 401.6 175.88C401.6 175.88 355.4 222.44 295.13 167.22C295.13 167.22 285.75 143.76 274.2 136.9Z" fill="black" stroke="black" stroke-miterlimit="10"/>
<path d="M194.132 163.236C203.705 160.046 209.205 150.677 206.416 142.31C203.628 133.942 193.607 129.745 184.035 132.935C174.462 136.125 168.962 145.494 171.751 153.862C174.539 162.229 184.56 166.426 194.132 163.236Z" fill="white"/>
<path d="M341.074 153.823C343.862 145.455 338.363 136.086 328.79 132.896C319.217 129.706 309.197 133.904 306.408 142.271C303.62 150.639 309.119 160.008 318.692 163.198C328.265 166.388 338.286 162.191 341.074 153.823Z" fill="white"/>
<path d="M256.42 182.4C270.106 182.4 281.2 174.292 281.2 164.29C281.2 154.288 270.106 146.18 256.42 146.18C242.734 146.18 231.64 154.288 231.64 164.29C231.64 174.292 242.734 182.4 256.42 182.4Z" fill="black"/>
<path d="M256.42 182.4C256.42 182.4 258.31 202.95 224.21 202.95" stroke="black" stroke-miterlimit="10"/>
<path d="M255.72 182.4C255.72 182.4 253.75 202.95 289.18 202.95" stroke="black" stroke-miterlimit="10"/>
<path d="M148.69 60.03C115.4 -30.11 171.03 34.86 171.03 34.86L148.69 60.03Z" fill="#FFBBBC"/>
<path d="M361.86 60.03C395.15 -30.11 339.52 34.86 339.52 34.86L361.86 60.03Z" fill="#FFBBBC"/>
</g>
<defs>
<clipPath id="clip0_72_4">
<rect width="446" height="410" fill="white"/>
</clipPath>
</defs>
</svg>
