<?xml version="1.0" encoding="UTF-8"?>
<svg xmlns="http://www.w3.org/2000/svg" viewBox="0 0 534.41 598.14">
  <defs>
    <style>
      .cls-1, .cls-2 {
        fill: none;
      }

      .cls-1, .cls-3 {
        stroke: #000;
        stroke-miterlimit: 10;
      }

      .cls-4, .cls-5 {
        fill: #fff;
      }

      .cls-6 {
        fill: #ffbbbc;
      }

      .cls-7 {
        fill: #444;
      }

      .cls-5 {
        opacity: .8;
      }

      .cls-8 {
        fill: #cc0005;
      }
    </style>
  </defs>
  <g id="Layer_15" data-name="Layer 15">
    <path class="cls-7" d="M305.71,191.27s-33.58,25.49-102.6,1.41-71.46,269.31-71.46,269.31c0,0,117.74,168.09,244.42,0,0,0,3.05-279.97-70.36-270.72Z"/>
  </g>
  <g id="Layer_20" data-name="Layer 20">
    <path class="cls-7" d="M201.52,592.18c-.81-.27-8.66-5.68-8.66-5.68l-10.83,9.74-5.68-8.12-8.12,8.12-5.41-4.87-8.66,2.71-1.35-7.58s-26.54-121.54-20.17-143.46,95.42,69.57,95.42,69.57c0,0-10.56,69.83-24.36,79.58"/>
    <path class="cls-7" d="M306.2,594.08c.81-.27,8.66-5.68,8.66-5.68l10.83,9.74,5.68-8.12,8.12,8.12,5.41-4.87,8.66,2.71,1.35-7.58s26.54-121.54,20.17-143.46c-6.37-21.92-95.42,69.57-95.42,69.57,0,0,10.56,69.83,24.36,79.58"/>
  </g>
  <g id="Layer_16" data-name="Layer 16">
    <path class="cls-7" d="M170.83,203.86s-95.05-66.88-107.03-64.77l-13.36-25.11-5.98,9.59s-25.37-18.56-30.52-13.28l13.71,14.69-27.64,1.85,23.49,11.15-21.37,7.94,33.44,15.31s17.94,35.7,78.11,96.89,95.38-28.18,57.16-54.25Z"/>
    <path class="cls-7" d="M370.61,231.06s55.23,102.26,51.73,113.91l23.37,16.22-10.22,4.81s15.44,27.38,9.6,31.87l-12.97-15.35-5.09,27.23-8.31-24.64-10.4,20.29-11.27-35.01s-33.34-22.02-87.03-88.97c-53.69-66.95,39.21-91.4,60.6-50.38Z"/>
  </g>
  <g id="Layer_21" data-name="Layer 21">
    <ellipse class="cls-5" cx="255.7" cy="340.01" rx="85.39" ry="120.08"/>
  </g>
  <g id="Layer_14" data-name="Layer 14">
    <polygon class="cls-8" points="231.65 232.18 254.53 253.3 274.2 232.18 231.65 232.18"/>
    <polyline class="cls-8" points="256.44 373.48 231.65 339.37 254.53 253.3 281.2 339.37"/>
  </g>
  <g id="Layer_8" data-name="Layer 8">
    <path d="M232.35,139.63s-26-103.42-38.45-119.66h20.14l-6.06-12.45,46.56,13.53v118.58h-22.18Z"/>
    <path d="M276.71,139.63s26-103.42,38.45-119.66h-20.14s6.06-12.45,6.06-12.45l-46.56,13.53v118.58s22.18,0,22.18,0Z"/>
  </g>
  <g id="Layer_6" data-name="Layer 6">
    <path class="cls-7" d="M118.35,96.84l19.85-7.04s-43.85-149.41,40.06-62.8c0,0,17.86,9.2,15.16,1.08l-2.71-8.12s61.89,25.44,44.21,107.19c-17.68,81.74-116.58-30.32-116.58-30.32"/>
    <path class="cls-7" d="M389.35,96.84l-19.85-7.04s43.85-149.41-40.06-62.8c0,0-17.86,9.2-15.16,1.08l2.71-8.12s-61.89,25.44-44.21,107.19,116.58-30.32,116.58-30.32"/>
  </g>
  <g id="Layer_4" data-name="Layer 4">
    <path class="cls-4" d="M109.09,175.88s23.85,23.16,63.7,39.77c53.35,22.24,135.36,32.74,227.19-39.77"/>
    <path class="cls-4" d="M401.6,178.05h-96.05c-54.55-104.48-98.78,0-98.78,0h-99.3"/>
  </g>
  <g id="Layer_5" data-name="Layer 5">
    <path class="cls-2" d="M107.46,165.42s33.38-57.74,27.43-59.91"/>
    <path class="cls-4" d="M105.64,165.42s44.56-68.03,14.07-68.57l43.67-7.58-5.41-10.83,22.74,7.04-4.87-12.99,23.82,8.12-4.33-12.99s59.73,26.53,40.96,66.05c0,0-55.76-66.41-130.65,31.76"/>
    <path class="cls-4" d="M403.42,165.42s-44.56-68.03-14.07-68.57l-43.67-7.58,5.41-10.83-22.74,7.04,4.87-12.99-23.82,8.12,4.33-12.99s-59.73,26.53-40.96,66.05c0,0,55.76-66.41,130.65,31.76"/>
  </g>
  <g id="Layer_3" data-name="Layer 3">
    <path class="cls-3" d="M238.11,136.9s-40.78-62.08-103.94-3.61l-26.71,32.12s18.05,2.53,20.93,0c2.89-2.53-14.8,5.77-17.68,10.47,0,0,46.2,46.56,106.47-8.66,0,0,9.38-23.46,20.93-30.32Z"/>
    <path class="cls-3" d="M274.2,136.9s40.78-62.08,103.94-3.61l26.71,32.12s-18.05,2.53-20.93,0,14.8,5.77,17.68,10.47c0,0-46.2,46.56-106.47-8.66,0,0-9.38-23.46-20.93-30.32Z"/>
  </g>
  <g id="Layer_9" data-name="Layer 9">
    <ellipse class="cls-4" cx="189.09" cy="148.07" rx="18.27" ry="15.97" transform="translate(-37.12 67.39) rotate(-18.43)"/>
    <ellipse class="cls-4" cx="323.76" cy="148.07" rx="15.97" ry="18.27" transform="translate(80.91 408.39) rotate(-71.57)"/>
  </g>
  <g id="Layer_11" data-name="Layer 11">
    <ellipse cx="256.42" cy="164.29" rx="24.78" ry="18.11"/>
    <path class="cls-1" d="M256.42,182.4s1.89,20.55-32.21,20.55"/>
    <path class="cls-1" d="M255.72,182.4s-1.97,20.55,33.46,20.55"/>
  </g>
  <g id="Layer_13" data-name="Layer 13">
    <path class="cls-6" d="M148.69,60.03c-33.29-90.14,22.34-25.17,22.34-25.17l-22.34,25.17Z"/>
    <path class="cls-6" d="M361.86,60.03c33.29-90.14-22.34-25.17-22.34-25.17l22.34,25.17Z"/>
  </g>
</svg>