<svg width="320" height="350" viewBox="0 0 320 350" fill="none" xmlns="http://www.w3.org/2000/svg">
<g clip-path="url(#clip0_12_358)">
<path d="M185.87 111.921C185.87 111.921 166.176 126.837 125.696 112.746C85.2169 98.6558 83.7859 270.332 83.7859 270.332C83.7859 270.332 152.839 368.69 227.135 270.332C227.135 270.332 228.924 106.509 185.87 111.921Z" fill="#444444"/>
<path d="M124.764 346.513C124.289 346.355 119.685 343.189 119.685 343.189L113.333 348.888L110.002 344.137L105.239 348.888L102.067 346.039L96.9876 347.624L96.1958 343.189C96.1958 343.189 80.6304 272.07 84.3664 259.244C88.1023 246.417 140.329 299.952 140.329 299.952C140.329 299.952 134.136 340.813 126.042 346.518" fill="#444444"/>
<path d="M186.157 347.624C186.633 347.466 191.236 344.301 191.236 344.301L197.588 350L200.919 345.249L205.682 350L208.855 347.15L213.934 348.736L214.725 344.301C214.725 344.301 230.291 273.182 226.555 260.355C222.819 247.529 170.592 301.064 170.592 301.064C170.592 301.064 176.785 341.925 184.879 347.63" fill="#444444"/>
<path d="M106.923 128.305C106.923 128.305 44.7667 100.382 38.1042 102.916L27.6295 89.9605L25.2483 96.128C25.2483 96.128 8.58033 88.2695 6.19918 91.8681L15.7238 98.7904L0.00585938 102.91L14.7678 106.719L3.33712 113.641L24.2924 118.744C24.2924 118.744 38.5792 137.276 80.0147 165.784C121.45 194.292 131.825 139.049 106.929 128.294L106.923 128.305Z" fill="#444444"/>
<path d="M234.73 145.339C234.73 145.339 267.122 205.176 265.07 211.993L278.776 221.484L272.782 224.299C272.782 224.299 281.837 240.32 278.412 242.947L270.805 233.965L267.82 249.899L262.946 235.481L256.847 247.353L250.237 226.867C250.237 226.867 230.684 213.982 199.195 174.807C167.707 135.631 222.191 121.324 234.736 145.327L234.73 145.339Z" fill="#444444"/>
<path opacity="0.8" d="M156.54 269.22C184.198 269.22 206.62 237.762 206.62 198.956C206.62 160.15 184.198 128.691 156.54 128.691C128.881 128.691 106.459 160.15 106.459 198.956C106.459 237.762 128.881 269.22 156.54 269.22Z" fill="white"/>
<path d="M142.435 135.859L155.853 148.218L167.39 135.859H142.435Z" fill="#CC0005"/>
<path d="M156.974 218.541L142.435 198.581L155.853 148.218L171.495 198.581" fill="#CC0005"/>
<path d="M142.845 81.7041C142.845 81.7041 127.596 21.1882 120.295 11.6854H132.107L128.552 4.40031L155.859 12.3174V81.7041H142.851H142.845Z" fill="black"/>
<path d="M168.862 81.7041C168.862 81.7041 184.111 21.1882 191.412 11.6854H179.6L183.155 4.40031L155.848 12.3174V81.7041H168.856H168.862Z" fill="black"/>
<path d="M75.9856 56.6657L87.6274 52.5462C87.6274 52.5462 61.9099 -34.8806 111.122 15.799C111.122 15.799 121.597 21.1823 120.013 16.4309L118.424 11.6795C118.424 11.6795 154.722 26.5657 144.353 74.4015C133.983 122.237 75.9797 56.6598 75.9797 56.6598" fill="#444444"/>
<path d="M234.924 56.6657L223.282 52.5462C223.282 52.5462 249 -34.8806 199.787 15.799C199.787 15.799 189.313 21.1823 190.896 16.4309L192.486 11.6795C192.486 11.6795 156.188 26.5657 166.557 74.4015C176.926 122.237 234.93 56.6598 234.93 56.6598" fill="#444444"/>
<path d="M70.5547 102.916C70.5547 102.916 84.5424 116.468 107.914 126.187C139.203 139.201 187.301 145.345 241.158 102.916" fill="white"/>
<path d="M242.108 102.916H185.776C153.783 44.6292 127.843 102.916 127.843 102.916H69.6045" fill="white"/>
<path d="M68.5312 96.7951C68.5312 96.7951 94.6652 56.9875 76.7831 56.6715L102.395 52.2361L99.2222 45.899L112.559 50.0184L109.703 42.4173L123.673 47.1687L121.133 39.5677C121.133 39.5677 156.164 55.0916 145.156 78.2166C145.156 78.2166 112.453 39.357 68.5312 96.8009" fill="white"/>
<path d="M243.176 96.7951C243.176 96.7951 217.042 56.9875 234.924 56.6715L209.312 52.2361L212.485 45.899L199.148 50.0184L202.004 42.4173L188.034 47.1687L190.574 39.5677C190.574 39.5677 155.543 55.0916 166.551 78.2166C166.551 78.2166 199.254 39.357 243.176 96.8009" fill="white"/>
<path d="M146.223 80.1067C146.223 80.1067 122.306 43.7807 85.2638 77.9943L69.5986 96.7892C69.5986 96.7892 80.1848 98.2696 81.8738 96.7892C83.5629 95.3088 73.1938 100.166 71.5047 102.916C71.5047 102.916 98.6005 130.16 133.948 97.8483C133.948 97.8483 139.449 84.1208 146.223 80.1067Z" fill="black" stroke="black" stroke-miterlimit="10"/>
<path d="M167.39 80.1067C167.39 80.1067 191.307 43.7807 228.349 77.9943L244.014 96.7892C244.014 96.7892 233.428 98.2696 231.739 96.7892C230.05 95.3088 240.419 100.166 242.108 102.916C242.108 102.916 215.013 130.16 179.665 97.8483C179.665 97.8483 174.164 84.1208 167.39 80.1067Z" fill="black" stroke="black" stroke-miterlimit="10"/>
<path d="M120.428 95.5209C126.042 93.6543 129.268 88.1718 127.633 83.2756C125.997 78.3793 120.12 75.9232 114.506 77.7898C108.892 79.6565 105.666 85.1389 107.301 90.0352C108.937 94.9314 114.814 97.3875 120.428 95.5209Z" fill="white"/>
<path d="M206.607 90.0121C208.243 85.1158 205.017 79.6334 199.403 77.7668C193.788 75.9001 187.911 78.3562 186.276 83.2525C184.641 88.1488 187.866 93.6312 193.481 95.4978C199.095 97.3644 204.972 94.9084 206.607 90.0121Z" fill="white"/>
<path d="M156.962 106.731C164.989 106.731 171.495 101.986 171.495 96.1338C171.495 90.2813 164.989 85.5368 156.962 85.5368C148.936 85.5368 142.429 90.2813 142.429 96.1338C142.429 101.986 148.936 106.731 156.962 106.731Z" fill="black"/>
<path d="M156.962 106.731C156.962 106.731 158.071 118.756 138.071 118.756" stroke="black" stroke-miterlimit="10"/>
<path d="M156.552 106.731C156.552 106.731 155.396 118.756 176.176 118.756" stroke="black" stroke-miterlimit="10"/>
<path d="M93.7855 35.1264C74.2613 -17.6188 106.888 20.3982 106.888 20.3982L93.7855 35.1264Z" fill="#FFBBBC"/>
<path d="M218.801 35.1264C238.326 -17.6188 205.699 20.3982 205.699 20.3982L218.801 35.1264Z" fill="#FFBBBC"/>
</g>
<defs>
<clipPath id="clip0_12_358">
<rect width="320" height="350" fill="white"/>
</clipPath>
</defs>
</svg>
