<svg width="186" height="282" viewBox="0 0 186 282" fill="none" xmlns="http://www.w3.org/2000/svg">
<g clip-path="url(#clip0_12_532)">
<path d="M108.899 101.866C108.899 101.866 97.6521 110.394 74.5355 102.337C51.4189 94.281 50.6017 192.44 50.6017 192.44C50.6017 192.44 90.0359 248.677 132.464 192.44C132.464 192.44 133.486 98.7709 108.899 101.866Z" fill="#444444"/>
<path d="M74.0063 235.997C73.735 235.907 71.1059 234.097 71.1059 234.097L67.4786 237.355L65.5762 234.639L62.8566 237.355L61.0447 235.726L58.1442 236.633L57.692 234.097C57.692 234.097 48.8031 193.433 50.9366 186.1C53.0701 178.766 82.8953 209.376 82.8953 209.376C82.8953 209.376 79.3584 232.738 74.7365 236" fill="#444444"/>
<path d="M109.066 236.633C109.338 236.542 111.967 234.732 111.967 234.732L115.594 237.991L117.497 235.274L120.216 237.991L122.028 236.362L124.929 237.268L125.381 234.732C125.381 234.732 134.27 194.069 132.136 186.735C130.003 179.402 100.177 210.011 100.177 210.011C100.177 210.011 103.714 233.374 108.336 236.636" fill="#444444"/>
<path d="M63.8145 111.234C63.8145 111.234 28.319 95.268 24.5142 96.7167L18.5324 89.3094L17.1726 92.8357C17.1726 92.8357 7.65401 88.3425 6.29421 90.4001L11.7334 94.358L2.75739 96.7133L11.1875 98.8914L4.65977 102.849L16.6267 105.767C16.6267 105.767 24.7855 116.362 48.4481 132.663C72.1106 148.963 78.0355 117.376 63.8178 111.227L63.8145 111.234Z" fill="#444444"/>
<path opacity="0.8" d="M92.1526 191.804C107.948 191.804 120.752 173.817 120.752 151.629C120.752 129.441 107.948 111.454 92.1526 111.454C76.3576 111.454 63.5533 129.441 63.5533 151.629C63.5533 173.817 76.3576 191.804 92.1526 191.804Z" fill="white"/>
<path d="M84.0977 115.553L91.7608 122.619L98.3488 115.553H84.0977Z" fill="#CC0005"/>
<path d="M92.4005 162.827L84.0977 151.415L91.7608 122.619L100.693 151.415" fill="#CC0005"/>
<path d="M84.3321 84.5886C84.3321 84.5886 75.624 49.9877 71.4542 44.5543H78.1996L76.17 40.389L91.7641 44.9156V84.5886H84.3355H84.3321Z" fill="black"/>
<path d="M99.1895 84.5886C99.1895 84.5886 107.898 49.9877 112.067 44.5543H105.322L107.352 40.389L91.7574 44.9156V84.5886H99.1861H99.1895Z" fill="black"/>
<path d="M46.1505 70.2725L52.7988 67.9171C52.7988 67.9171 38.1122 17.9295 66.2159 46.9063C66.2159 46.9063 72.1977 49.9843 71.2934 47.2677L70.3858 44.551C70.3858 44.551 91.1144 53.0624 85.1929 80.4132C79.2714 107.761 46.1471 70.2691 46.1471 70.2691" fill="#444444"/>
<path d="M136.916 70.2725L130.267 67.9171C130.267 67.9171 144.954 17.9295 116.85 46.9063C116.85 46.9063 110.868 49.9843 111.773 47.2677L112.68 44.551C112.68 44.551 91.9517 53.0624 97.8732 80.4132C103.795 107.764 136.919 70.2691 136.919 70.2691" fill="#444444"/>
<path d="M43.0457 96.7167C43.0457 96.7167 51.0337 104.465 64.3805 110.022C82.2489 117.463 109.716 120.976 140.472 96.7167" fill="white"/>
<path d="M141.015 96.7167H108.845C90.5751 63.3904 75.7613 96.7167 75.7613 96.7167H42.5031" fill="white"/>
<path d="M41.8936 93.2171C41.8936 93.2171 56.8179 70.4565 46.606 70.2758L61.2322 67.7398L59.4203 64.1165L67.0365 66.4718L65.4054 62.1258L73.3833 64.8425L71.9331 60.4964C71.9331 60.4964 91.9383 69.3725 85.6517 82.5946C85.6517 82.5946 66.9762 60.376 41.8936 93.2205" fill="white"/>
<path d="M141.628 93.2171C141.628 93.2171 126.704 70.4565 136.916 70.2758L122.289 67.7398L124.101 64.1165L116.485 66.4718L118.116 62.1258L110.138 64.8425L111.588 60.4964C111.588 60.4964 91.5832 69.3725 97.8698 82.5946C97.8698 82.5946 116.545 60.376 141.628 93.2205" fill="white"/>
<path d="M86.2613 83.6786C86.2613 83.6786 72.603 62.9087 51.449 82.4708L42.5031 93.2171C42.5031 93.2171 48.5486 94.0636 49.5132 93.2171C50.4777 92.3706 44.5562 95.1476 43.5917 96.72C43.5917 96.72 59.0653 112.297 79.2513 93.8227C79.2513 93.8227 82.3929 85.9737 86.2613 83.6786Z" fill="black" stroke="black" stroke-miterlimit="10"/>
<path d="M98.3488 83.6786C98.3488 83.6786 112.007 62.9087 133.161 82.4708L142.107 93.2171C142.107 93.2171 136.062 94.0636 135.097 93.2171C134.132 92.3706 140.054 95.1476 141.018 96.72C141.018 96.72 125.545 112.297 105.359 93.8227C105.359 93.8227 102.217 85.9737 98.3488 83.6786Z" fill="black" stroke="black" stroke-miterlimit="10"/>
<path d="M71.5245 92.4907C74.7306 91.4235 76.5726 88.2888 75.6387 85.4893C74.7048 82.6897 71.3486 81.2855 68.1425 82.3527C64.9363 83.42 63.0943 86.5546 64.0282 89.3542C64.9621 92.1537 68.3183 93.558 71.5245 92.4907Z" fill="white"/>
<path d="M120.746 89.3333C121.68 86.5338 119.838 83.3991 116.632 82.3318C113.426 81.2646 110.07 82.6689 109.136 85.4684C108.202 88.2679 110.044 91.4026 113.25 92.4698C116.456 93.5371 119.812 92.1328 120.746 89.3333Z" fill="white"/>
<path d="M92.3938 98.8981C96.9775 98.8981 100.693 96.1854 100.693 92.8391C100.693 89.4928 96.9775 86.78 92.3938 86.78C87.8101 86.78 84.0943 89.4928 84.0943 92.8391C84.0943 96.1854 87.8101 98.8981 92.3938 98.8981Z" fill="black"/>
<path d="M92.3938 98.8981C92.3938 98.8981 93.0268 105.773 81.6058 105.773" stroke="black" stroke-miterlimit="10"/>
<path d="M92.156 98.8981C92.156 98.8981 91.4962 105.773 103.363 105.773" stroke="black" stroke-miterlimit="10"/>
<path d="M56.3122 57.9571C45.1625 27.7992 63.7944 49.536 63.7944 49.536L56.3122 57.9571Z" fill="#FFBBBC"/>
<path d="M127.708 57.9571C138.858 27.7992 120.226 49.536 120.226 49.536L127.708 57.9571Z" fill="#FFBBBC"/>
<path d="M128.054 0.24243L0.729492 84.7138L10.3093 99.1226L137.634 14.6512L128.054 0.24243Z" fill="#BBBBBB" stroke="black" stroke-miterlimit="10"/>
<path d="M69.4915 18.4715L40.9457 37.4113L50.4744 51.7375L56.8748 47.4885L58.6299 46.3275L79.0168 32.7976L69.4915 18.4715Z" fill="#BBBBBB" stroke="black" stroke-miterlimit="10"/>
<path d="M64.2035 28.9383L51.9693 37.0549L58.2898 46.5614L70.5239 38.4448L64.2035 28.9383Z" fill="#999999" stroke="black" stroke-miterlimit="10"/>
<path d="M154.62 123.161H27.8233V281.833H154.62V123.161Z" fill="#BBBBBB" stroke="black" stroke-miterlimit="10"/>
<path d="M60.4887 133.496H45.8022V270.966H60.4887V133.496Z" fill="#999999" stroke="black" stroke-miterlimit="10"/>
<path d="M137.458 133.76H122.772V271.23H137.458V133.76Z" fill="#999999" stroke="black" stroke-miterlimit="10"/>
<path d="M98.9717 133.76H84.2852V271.23H98.9717V133.76Z" fill="#999999" stroke="black" stroke-miterlimit="10"/>
</g>
<defs>
<clipPath id="clip0_12_532">
<rect width="185" height="282" fill="white" transform="translate(0.5)"/>
</clipPath>
</defs>
</svg>
