<svg width="184" height="250" viewBox="0 0 184 250" fill="none" xmlns="http://www.w3.org/2000/svg">
<g clip-path="url(#clip0_12_520)">
<path opacity="0.8" d="M90.0212 160.108C105.838 160.108 118.661 142.182 118.661 120.068C118.661 97.9552 105.838 80.0289 90.0212 80.0289C74.2039 80.0289 61.3815 97.9552 61.3815 120.068C61.3815 142.182 74.2039 160.108 90.0212 160.108Z" fill="white"/>
<path d="M165.62 74.3071H12.5576V91.546H165.62V74.3071Z" fill="#BBBBBB" stroke="black" stroke-miterlimit="10"/>
<path d="M106.657 57.1917H72.3389V74.3305H80.0363H82.146H106.657V57.1917Z" fill="#BBBBBB" stroke="black" stroke-miterlimit="10"/>
<path d="M96.444 62.9635H81.7368V74.3371H96.444V62.9635Z" fill="#999999" stroke="black" stroke-miterlimit="10"/>
<path d="M152.576 91.696H25.6012V249.833H152.576V91.696Z" fill="#BBBBBB" stroke="black" stroke-miterlimit="10"/>
<path d="M58.3126 101.996H43.6054V239.003H58.3126V101.996Z" fill="#999999" stroke="black" stroke-miterlimit="10"/>
<path d="M135.39 102.259H120.683V239.267H135.39V102.259Z" fill="#999999" stroke="black" stroke-miterlimit="10"/>
<path d="M96.8532 102.259H82.146V239.267H96.8532V102.259Z" fill="#999999" stroke="black" stroke-miterlimit="10"/>
</g>
<defs>
<clipPath id="clip0_12_520">
<rect width="183" height="250" fill="white" transform="translate(0.5)"/>
</clipPath>
</defs>
</svg>
