<svg width="183" height="229" viewBox="0 0 183 229" fill="none" xmlns="http://www.w3.org/2000/svg">
<g clip-path="url(#clip0_12_580)">
<path d="M106.137 76.2307C106.137 76.2307 94.9242 84.7614 71.8783 76.7026C48.8323 68.6438 48.0176 166.832 48.0176 166.832C48.0176 166.832 87.3312 223.086 129.63 166.832C129.63 166.832 130.648 73.135 106.137 76.2307Z" fill="#444444"/>
<path d="M71.3473 210.402C71.0769 210.312 68.4557 208.502 68.4557 208.502L64.8396 211.761L62.943 209.044L60.2317 211.761L58.4253 210.131L55.5337 211.038L55.083 208.502C55.083 208.502 46.2212 167.826 48.3482 160.49C50.4751 153.154 80.2091 183.773 80.2091 183.773C80.2091 183.773 76.6831 207.143 72.0752 210.406" fill="#444444"/>
<path d="M106.3 211.038C106.571 210.948 109.192 209.137 109.192 209.137L112.808 212.397L114.705 209.68L117.416 212.397L119.222 210.767L122.114 211.674L122.565 209.137C122.565 209.137 131.426 168.462 129.299 161.126C127.172 153.79 97.4384 184.409 97.4384 184.409C97.4384 184.409 100.964 207.779 105.572 211.042" fill="#444444"/>
<path d="M70.6562 97.8603C70.6562 97.8603 47.7037 66.4952 43.6869 65.8861L42.1343 56.4953L39.2193 58.8982C39.2193 58.8982 33.169 50.304 30.9753 51.4251L33.75 57.5495L24.8047 55.1834L31.0487 61.2275L23.4391 61.4618L32.3877 69.8887C32.3877 69.8887 34.2609 83.1282 46.7822 108.961C59.3035 134.794 79.9687 110.21 70.6495 97.8603H70.6562Z" fill="#444444"/>
<path opacity="0.8" d="M89.4382 166.196C105.185 166.196 117.95 148.204 117.95 126.009C117.95 103.815 105.185 85.8223 89.4382 85.8223C73.6915 85.8223 60.9263 103.815 60.9263 126.009C60.9263 148.204 73.6915 166.196 89.4382 166.196Z" fill="white"/>
<path d="M81.4078 89.922L89.0475 96.9902L95.6153 89.922H81.4078Z" fill="#CC0005"/>
<path d="M89.6852 137.211L81.4078 125.795L89.0475 96.9902L97.9527 125.795" fill="#CC0005"/>
<path d="M81.6415 58.9484C81.6415 58.9484 72.9601 24.3371 68.803 18.9021H75.5278L73.5044 14.7354L89.0508 19.2635V58.9484H81.6449H81.6415Z" fill="black"/>
<path d="M96.4534 58.9484C96.4534 58.9484 105.135 24.3371 109.292 18.9021H102.567L104.591 14.7354L89.0441 19.2635V58.9484H96.4501H96.4534Z" fill="black"/>
<path d="M134.064 44.628L127.436 42.2719C127.436 42.2719 142.078 -7.73083 114.06 21.2548C114.06 21.2548 108.097 24.3337 108.998 21.6162L109.903 18.8987C109.903 18.8987 89.2378 27.4127 95.1412 54.7718C101.045 82.1309 134.067 44.6246 134.067 44.6246" fill="#444444"/>
<path d="M40.4848 71.0802C40.4848 71.0802 48.4483 78.8311 61.7543 84.3899C79.568 91.8329 106.951 95.3469 137.614 71.0802" fill="white"/>
<path d="M138.154 71.0802H106.083C87.8688 37.7439 73.1003 71.0802 73.1003 71.0802H39.9438" fill="white"/>
<path d="M39.3328 67.5795C39.3328 67.5795 54.2115 44.8121 44.0308 44.6313L58.6123 42.0945L56.8059 38.4701L64.3988 40.8262L62.7727 36.4788L70.7263 39.1963L69.2805 34.849C69.2805 34.849 89.2245 43.7277 82.9571 56.9538C82.9571 56.9538 64.3387 34.7285 39.3328 67.5829" fill="white"/>
<path d="M138.762 67.5795C138.762 67.5795 123.883 44.8121 134.064 44.6313L119.483 42.0945L121.289 38.4701L113.696 40.8262L115.322 36.4788L107.369 39.1963L108.814 34.849C108.814 34.849 88.8705 43.7277 95.1379 56.9538C95.1379 56.9538 113.756 34.7285 138.762 67.5829" fill="white"/>
<path d="M83.5648 58.0348C83.5648 58.0348 69.9483 37.2586 48.859 56.8266L39.9405 67.5762C39.9405 67.5762 45.9675 68.4229 46.9291 67.5762C47.8941 66.7295 41.9873 69.5072 41.0257 71.0802C41.0257 71.0802 56.452 86.6623 76.5763 68.1819C76.5763 68.1819 79.7083 60.3306 83.5648 58.0348Z" fill="black" stroke="black" stroke-miterlimit="10"/>
<path d="M95.6154 58.0348C95.6154 58.0348 109.232 37.2586 130.321 56.8266L139.24 67.5762C139.24 67.5762 133.213 68.4229 132.251 67.5762C131.289 66.7295 137.193 69.5072 138.154 71.0802C138.154 71.0802 122.728 86.6623 102.604 68.1819C102.604 68.1819 99.4719 60.3306 95.6154 58.0348Z" fill="black" stroke="black" stroke-miterlimit="10"/>
<path d="M68.8791 66.8512C72.0755 65.7836 73.9119 62.648 72.9808 59.8477C72.0498 57.0473 68.7038 55.6426 65.5075 56.7102C62.3111 57.7778 60.4747 60.9134 61.4058 63.7137C62.3368 66.5141 65.6828 67.9188 68.8791 66.8512Z" fill="white"/>
<path d="M117.944 63.6982C118.875 60.8978 117.039 57.7622 113.842 56.6946C110.646 55.627 107.3 57.0317 106.369 59.8321C105.438 62.6325 107.274 65.7681 110.471 66.8357C113.667 67.9032 117.013 66.4985 117.944 63.6982Z" fill="white"/>
<path d="M89.6819 73.2622C94.2516 73.2622 97.956 70.5487 97.956 67.2014C97.956 63.854 94.2516 61.1405 89.6819 61.1405C85.1122 61.1405 81.4078 63.854 81.4078 67.2014C81.4078 70.5487 85.1122 73.2622 89.6819 73.2622Z" fill="black"/>
<path d="M89.6819 73.2622C89.6819 73.2622 90.313 80.1396 78.9269 80.1396" stroke="black" stroke-miterlimit="10"/>
<path d="M89.4448 73.2622C89.4448 73.2622 88.787 80.1396 100.617 80.1396" stroke="black" stroke-miterlimit="10"/>
<path d="M150.529 6.37155L0.696411 34.178L3.83933 51.1912L153.672 23.3847L150.529 6.37155Z" fill="#BBBBBB" stroke="black" stroke-miterlimit="10"/>
<path d="M89.6886 0.194107L56.0947 6.42897L59.22 23.3464L66.7528 21.9475L68.8164 21.566L92.8139 17.1116L89.6886 0.194107Z" fill="#BBBBBB" stroke="black" stroke-miterlimit="10"/>
<path d="M80.7419 7.74613L66.345 10.418L68.4186 21.6427L82.8155 18.9709L80.7419 7.74613Z" fill="#999999" stroke="black" stroke-miterlimit="10"/>
<path d="M151.714 70.113H25.3056V228.833H151.714V70.113Z" fill="#BBBBBB" stroke="black" stroke-miterlimit="10"/>
<path d="M57.8744 80.4509H43.2328V217.963H57.8744V80.4509Z" fill="#999999" stroke="black" stroke-miterlimit="10"/>
<path d="M134.605 80.7186H119.963V218.23H134.605V80.7186Z" fill="#999999" stroke="black" stroke-miterlimit="10"/>
<path d="M96.2397 80.7186H81.5981V218.23H96.2397V80.7186Z" fill="#999999" stroke="black" stroke-miterlimit="10"/>
</g>
<defs>
<clipPath id="clip0_12_580">
<rect width="182" height="229" fill="white" transform="translate(0.5)"/>
</clipPath>
</defs>
</svg>
